<svg width="717" height="851" viewBox="0 0 717 851" fill="none" xmlns="http://www.w3.org/2000/svg">
<path d="M479.912 97.7072C493.158 109.487 506.68 133.008 499.032 168.939C491.384 204.87 487.501 225.816 495.526 244.268C511.221 280.357 655.702 342.293 654.86 440.629C653.904 552.204 538.706 556.932 509.07 592.863C487.24 619.331 485.17 691.201 417.294 733.751C358.149 770.827 240.528 776.789 166.344 713.422C113.764 668.508 116.314 613.666 118.862 590.657C121.411 567.649 143.345 497.79 107.835 446.458C65.6446 385.471 70.5441 338.583 85.1011 288.627C98.9459 241.117 136.585 166.831 230.714 114.727C334.918 57.0483 445.178 66.8196 479.912 97.7072Z" fill="url(#paint0_linear_1_1379)"/>
<path d="M420.162 134.506H455.534V169.489H420.162V134.506Z" fill="#C7A0F6"/>
<path d="M146.746 259.555H95.5493C91.0972 269.966 87.6852 279.763 85.1021 288.627C77.8757 313.426 73.0326 337.47 75.1454 362.857H146.746V259.555Z" fill="url(#paint1_linear_1_1379)"/>
<path d="M431.969 134.506H443.728V146.137H431.969V134.506Z" fill="#FDE1A7"/>
<path d="M431.969 157.859H443.728V169.49H431.969V157.859Z" fill="#FF57BC"/>
<path d="M420.162 146.183H431.922V157.813H420.162V146.183Z" fill="#FF9BBB"/>
<path d="M443.774 146.183H455.534V157.813H443.774V146.183Z" fill="#1AA9E8"/>
<path d="M471.946 245.372V194.784C471.946 194.534 471.845 194.293 471.666 194.116C471.486 193.938 471.243 193.839 470.99 193.839H464.616C464.362 193.839 464.119 193.938 463.94 194.116C463.761 194.293 463.66 194.534 463.66 194.784V245.372H471.946Z" fill="#05C5DA"/>
<path d="M463.66 245.372V190.057C463.66 188.552 463.056 187.109 461.98 186.045C460.904 184.981 459.445 184.383 457.924 184.383H452.188C450.667 184.383 449.208 184.981 448.132 186.045C447.056 187.109 446.452 188.552 446.452 190.057V245.372H463.66Z" fill="#FDE1A7"/>
<path d="M446.452 196.045H463.66V201.403H446.452V196.045Z" fill="#C7A0F6"/>
<path d="M423.63 244.741H441.091L423.731 179.246C423.635 178.886 423.469 178.547 423.241 178.25C423.014 177.954 422.729 177.704 422.404 177.516C422.079 177.328 421.719 177.205 421.346 177.154C420.973 177.104 420.593 177.126 420.229 177.221L409.441 180.018C409.077 180.112 408.735 180.276 408.435 180.502C408.135 180.727 407.882 181.008 407.692 181.33C407.502 181.651 407.378 182.007 407.326 182.376C407.275 182.745 407.298 183.121 407.394 183.481L423.63 244.741Z" fill="#1AA9E8"/>
<path d="M423.63 244.741L405.615 176.774C405.551 176.532 405.392 176.325 405.173 176.198C404.954 176.072 404.693 176.037 404.448 176.1L394.275 178.738C394.154 178.77 394.04 178.825 393.94 178.9C393.84 178.975 393.756 179.069 393.692 179.176C393.629 179.283 393.587 179.402 393.57 179.525C393.553 179.648 393.561 179.773 393.593 179.893L410.781 244.742H423.63V244.741Z" fill="#FF9BBB"/>
<path d="M411.491 198.948L427.828 194.711L434.657 220.473L418.32 224.709L411.491 198.948Z" fill="#0090B2"/>
<path d="M123.802 295.013C114.241 298.369 100.141 299.741 93.6881 312.506C86.7924 326.147 95.1221 332.481 95.6001 340.4C96.0188 347.335 91.0266 352.838 85.0649 356.002H139.337V285.18C136.184 288.538 131.677 292.25 123.802 295.013Z" fill="url(#paint2_linear_1_1379)"/>
<path opacity="0.3" d="M375.39 584.038C402.138 585.024 478.239 591.918 472.902 627.534C468.236 658.667 425.978 667.061 386.224 671.66C343.781 676.57 330.059 672.999 302.734 692.462C276.474 711.166 252.862 724.295 212.87 706.33C182.991 692.908 184.077 658.384 189.527 651.724C204.744 633.128 226.42 635.097 239.638 629.425C250.472 624.776 269.021 602.779 293.174 593.494C317.326 584.208 359.544 583.455 375.39 584.038Z" fill="url(#paint3_linear_1_1379)"/>
<path d="M393.234 245.608V73.027C391.237 72.9797 389.217 72.9579 387.18 72.9561V245.608H393.234Z" fill="url(#paint4_linear_1_1379)"/>
<path d="M116.035 286.621C122.966 282.957 110.299 271.138 122.129 266.41H92.732C91.0584 270.642 89.4967 274.917 88.0486 279.229C88.9845 278.83 89.9778 278.548 91.059 278.466C101.934 277.639 103.685 293.15 116.035 286.621Z" fill="#1AA9E8"/>
<path d="M380.409 103.38V103.695H485.721C483.932 101.564 481.991 99.5632 479.912 97.707H386.145C384.623 97.707 383.164 98.3048 382.089 99.3687C381.013 100.433 380.409 101.876 380.409 103.38Z" fill="url(#paint5_linear_1_1379)"/>
<path d="M380.409 171.618V171.933H498.396L499.032 168.939C499.247 167.93 499.439 166.934 499.621 165.945H386.145C384.623 165.945 383.164 166.543 382.089 167.607C381.013 168.67 380.409 170.113 380.409 171.618Z" fill="url(#paint6_linear_1_1379)"/>
<path d="M380.409 248.603V248.917H498.157C497.076 247.323 496.18 245.772 495.526 244.268C495.333 243.824 495.153 243.376 494.973 242.928H386.145C384.623 242.929 383.165 243.527 382.089 244.591C381.013 245.655 380.409 247.098 380.409 248.603Z" fill="url(#paint7_linear_1_1379)"/>
<path d="M95.5999 340.4C95.1219 332.481 86.7923 326.147 93.6879 312.506C100.141 299.741 114.241 298.369 123.802 295.013C131.676 292.249 136.184 288.538 139.337 285.179V266.41H122.129C110.298 271.138 122.965 282.957 116.034 286.621C103.685 293.15 101.933 277.639 91.0589 278.466C89.9767 278.548 88.9834 278.83 88.0485 279.229C87.0037 282.342 86.0214 285.475 85.1021 288.626C78.5296 311.182 73.9274 333.114 74.7381 356.001H85.0648C91.0264 352.838 96.0186 347.335 95.5999 340.4Z" fill="url(#paint8_linear_1_1379)"/>
<path d="M115.676 335.358C121.308 335.358 125.874 330.842 125.874 325.271C125.874 319.701 121.308 315.185 115.676 315.185C110.044 315.185 105.478 319.701 105.478 325.271C105.478 330.842 110.044 335.358 115.676 335.358Z" fill="url(#paint9_linear_1_1379)"/>
<path d="M123.084 648.081C129.189 669.179 141.721 692.389 166.344 713.422C171.396 717.729 176.688 721.756 182.193 725.481L195.826 648.082H123.084V648.081Z" fill="url(#paint10_linear_1_1379)"/>
<path d="M195.917 649.622C195.917 636.926 177.761 626.639 155.365 626.639C140.58 626.639 127.647 631.123 120.561 637.822C122.504 647.348 125.661 657.498 130.614 667.823C137.463 670.819 146.043 672.605 155.365 672.605C177.761 672.606 195.917 662.32 195.917 649.622Z" fill="#FF9BBB"/>
<path d="M188.172 648.574C188.172 638.605 173.368 630.529 155.112 630.529C138.599 630.529 124.916 637.134 122.448 645.77C123.497 649.657 124.728 653.493 126.136 657.267C131.762 662.842 142.627 666.618 155.112 666.618C173.369 666.618 188.172 658.543 188.172 648.574Z" fill="url(#paint11_linear_1_1379)"/>
<path d="M137.929 472.396C136.691 475.022 138.535 477.603 142.014 479.012C145.966 480.612 148.972 480.342 150.314 483.866C151.656 487.391 150.692 491.443 153.057 491.417C155.422 491.393 159.359 481.746 154.994 474.679C150.594 467.551 140.756 466.396 137.929 472.396Z" fill="url(#paint12_linear_1_1379)"/>
<path d="M160.608 613.311C162.52 608.111 181.998 580.926 216.175 578.326C247.048 575.977 259.245 589.987 256.208 596.173C254.176 600.31 246.887 599.128 243.899 598.301C240.912 597.473 235.67 594.51 232.188 596.291C228.723 598.064 229.136 602.603 225.616 604.328C219.305 607.422 212.809 602.253 207.452 600.192C200.999 597.71 190.124 595.464 182.357 602.556C172.848 611.239 170.859 618.744 167.884 631.925C164.909 645.106 163.503 651.626 162.878 652.434C162.101 653.439 160.847 654.561 157.501 653.261C154.155 651.961 158.457 635.059 158.098 628.204C157.74 621.348 160.608 613.311 160.608 613.311Z" fill="url(#paint13_linear_1_1379)"/>
<path d="M168.495 652.67C168.525 651.457 172.797 643.53 173.633 636.004C174.723 626.197 179.671 615.862 184.149 611.893C189.527 607.126 196.46 604.83 199.445 608.465C202.034 611.617 199.486 617.37 196.458 620.284C192.582 624.015 174.811 634.319 177.895 639.984C179.568 643.057 182.621 638.516 184.03 636.36C186.499 632.578 190.666 628.861 193.272 630.528C195.98 632.262 195.104 637.62 189.209 641.008C183.438 644.324 178.306 647.068 175.825 649.834C173.478 652.449 175.745 652.355 174.47 653.853C173.002 655.576 168.416 655.901 168.495 652.67Z" fill="url(#paint14_linear_1_1379)"/>
<path d="M143.4 652.551C144.965 651.631 143.519 643.332 140.532 639.196C137.544 635.059 131.928 633.049 131.928 630.095C131.928 627.14 133.407 624.535 131.689 620.875C130.135 617.566 124.041 618.866 123.802 613.547C123.563 608.229 126.297 601.672 128.387 590.094C130.255 579.744 128.553 576.176 125.833 574.543C122.487 572.534 121.77 567.688 124.28 560.833C126.028 556.06 125.035 526.02 114.361 525.256C105.279 524.606 101.537 540.608 101.455 548.777C101.336 560.774 106.017 563.758 104.204 569.934C102.053 577.262 99.1056 578.286 98.468 586.363C97.9431 593.017 97.99 602.082 112.091 619.102C125.435 635.209 134.221 642.124 136.588 645.46C139.497 649.558 140.651 654.167 143.4 652.551Z" fill="url(#paint15_linear_1_1379)"/>
<path d="M155.111 651.96C155.111 646.051 157.74 626.903 152.243 616.738C146.746 606.574 143.639 596.173 146.268 584.826C148.897 573.479 161.803 551.613 160.847 544.049C159.891 536.484 155.948 523.719 162.998 499.017C168.337 480.311 180.454 467.612 188.81 472.778C194.546 476.323 191.917 489.561 189.049 494.525C186.181 499.49 181.197 508.152 182.153 513.116C183.109 518.08 186.256 518.62 185.989 525.359C185.465 538.612 166.703 558.941 162.282 577.025C158.613 592.03 157.263 610.12 161.087 610.829C164.911 611.538 160.828 647.136 159.045 650.79C157.262 654.443 155.111 651.96 155.111 651.96Z" fill="url(#paint16_linear_1_1379)"/>
<path d="M143.56 493.739C147.145 496.102 147.543 501.775 146.109 505.715C144.675 509.655 143.355 511.473 143.719 514.068C144.118 516.904 149.615 517.85 151.367 523.681C153.12 529.512 150.252 541.173 147.225 549.526C144.198 557.879 144.995 564.025 148.021 564.498C151.048 564.97 153.757 560.872 154.713 555.83C155.669 550.787 155.212 528.574 168.735 532.506C174.153 534.081 173.754 543.142 170.329 549.526C167.687 554.447 158.777 565.206 154.236 579.784C150.036 593.269 146.731 603.97 155.033 605.629C162.123 607.047 166.027 599.167 166.983 594.125C167.939 589.082 171.186 571.735 186.899 574.741C194.308 576.158 189.681 593.954 178.773 603.265C171.335 609.615 161.889 617.522 159.175 628.48C156.228 640.378 160.449 652.591 158.697 654.955C156.945 657.319 150.093 655.902 150.253 654.325C150.412 652.749 152.165 649.597 148.819 646.918C145.473 644.239 137.691 640.534 132.407 636.833C127.123 633.132 127.627 627.377 130.335 625.328C133.044 623.279 136.172 625.859 137.346 627.219C139.656 629.898 144.994 646.17 151.367 641.875C155.424 639.142 148.927 625.753 144.357 619.655C137.505 610.513 122.13 607.047 113.447 595.543C107.325 587.434 110.922 578.34 115.04 576.79C120.697 574.661 125.881 579.729 127.011 584.847C128.525 591.7 131.577 602.593 139.737 596.49C149.217 589.397 134.944 576.04 127.946 568.439C114.961 554.333 108.747 532.191 119.98 528.725C124.981 527.182 129.141 534.082 130.336 541.963C131.708 551.007 138.433 579.947 144.358 576.633C148.022 574.583 139.896 567.651 139.578 561.82C139.26 555.989 140.056 547.636 137.188 540.229C134.32 532.823 126.789 513.221 130.814 501.619C134.478 491.058 141.964 492.688 143.56 493.739Z" fill="url(#paint17_linear_1_1379)"/>
<path d="M222.569 611.125C225.856 612.661 224.72 617.567 218.703 621.922C213.01 626.042 204.846 626.203 204.644 624.04C204.444 621.876 209.026 621.745 212.77 618.216C216.515 614.686 218.194 609.078 222.569 611.125Z" fill="url(#paint18_linear_1_1379)"/>
<path d="M579.319 282.265L574.874 282.28V393.036H582.522C584.044 393.036 585.502 392.438 586.578 391.374C587.654 390.31 588.258 388.867 588.258 387.362V289.931C588.258 286.031 585.789 282.265 579.319 282.265Z" fill="#9180E6"/>
<path d="M505.246 419.59C518.391 408.008 511.46 393.036 509.548 390.987H479.313C481.225 393.036 488.156 408.008 475.011 419.59H505.246Z" fill="url(#paint19_linear_1_1379)"/>
<path d="M506.422 421.287L503.974 418.179C508.467 414.22 510.881 409.47 511.147 404.063C511.449 397.957 508.864 393.044 508.142 392.27L510.951 389.705C512.519 391.384 515.306 397.374 514.966 404.248C514.653 410.615 511.637 416.693 506.422 421.287Z" fill="#9180E6"/>
<path d="M506.401 421.259C506.401 421.259 505.664 418.29 504.975 417.219H452.947C451.426 417.219 449.967 417.816 448.891 418.88C447.815 419.944 447.211 421.387 447.211 422.892V423.207H506.401V421.259Z" fill="#9180E6"/>
<path d="M398.014 387.363C398.014 388.867 398.619 390.311 399.694 391.374C400.77 392.438 402.229 393.036 403.75 393.036H578.698C580.22 393.036 581.679 392.438 582.754 391.374C583.83 390.311 584.434 388.867 584.434 387.363V287.764C584.434 286.259 583.83 284.816 582.754 283.752C581.679 282.688 580.22 282.09 578.698 282.09L403.75 289.182C402.229 289.182 400.77 289.78 399.694 290.844C398.619 291.908 398.014 293.351 398.014 294.855V387.363Z" fill="url(#paint20_linear_1_1379)"/>
<path d="M405.344 379.168L574.238 376.331V291.546L405.344 298.638V379.168Z" fill="url(#paint21_linear_1_1379)"/>
<path d="M564.48 305.499C564.549 307.354 562.894 308.921 560.784 308.997L466.214 312.558C464.104 312.636 462.337 311.193 462.268 309.338L462.19 307.238C462.121 305.383 463.776 303.816 465.886 303.738L560.455 300.177C562.566 300.101 564.332 301.543 564.401 303.398L564.48 305.499Z" fill="url(#paint22_linear_1_1379)"/>
<path d="M535.121 360.493C535.121 360.995 534.919 361.476 534.561 361.83C534.202 362.185 533.716 362.384 533.209 362.384L449.32 363.802C448.813 363.802 448.327 363.603 447.968 363.249C447.609 362.894 447.408 362.413 447.408 361.911V324.562C447.408 324.06 447.609 323.579 447.968 323.225C448.327 322.87 448.813 322.671 449.32 322.671L533.209 321.252C533.716 321.252 534.202 321.452 534.561 321.806C534.919 322.161 535.121 322.642 535.121 323.144V360.493Z" fill="#FF9BBB"/>
<path d="M420.329 313.677C422.793 313.677 424.791 311.701 424.791 309.264C424.791 306.827 422.793 304.851 420.329 304.851C417.865 304.851 415.868 306.827 415.868 309.264C415.868 311.701 417.865 313.677 420.329 313.677Z" fill="#FBBB6C"/>
<path d="M435.335 313.346C437.799 313.346 439.796 311.37 439.796 308.933C439.796 306.496 437.799 304.52 435.335 304.52C432.871 304.52 430.873 306.496 430.873 308.933C430.873 311.37 432.871 313.346 435.335 313.346Z" fill="#5265F9"/>
<path d="M450.34 313.015C452.804 313.015 454.802 311.039 454.802 308.602C454.802 306.165 452.804 304.189 450.34 304.189C447.876 304.189 445.878 306.165 445.878 308.602C445.878 311.039 447.876 313.015 450.34 313.015Z" fill="#EA4D81"/>
<path d="M524.442 332.318C511.221 332.126 464.616 333.308 448.842 331.417C433.068 329.526 414.924 322.853 408.451 317.47C408.014 317.11 407.601 316.722 407.214 316.309C408.372 320.386 410.004 324.089 408.85 329.999C407.931 334.701 403.14 341.401 396.588 344.215C399.395 345.499 402.376 346.75 405.344 347.806C417.294 352.061 441.202 354.267 457.128 354.267H524.685L524.442 332.318Z" fill="url(#paint23_linear_1_1379)"/>
<path d="M524.443 332.319C520.494 332.261 513.558 332.326 505.367 332.396C507.397 334.136 513.014 342.961 505.963 354.269H524.685L524.443 332.319Z" fill="url(#paint24_linear_1_1379)"/>
<path d="M408.85 329.999C410.004 324.089 408.372 320.386 407.214 316.309C404.996 313.938 404.934 311.824 402.356 307.542C399.661 303.063 398.247 299.157 398.014 296.668C397.536 291.546 400.71 287.414 400.312 284.105C399.932 280.951 391.598 279.732 388.853 284.376C386.384 288.552 387.646 294.795 388.016 297.023C388.535 300.135 388.136 301.396 388.136 301.396C388.136 301.396 380.249 311.206 379.89 319.125C379.532 327.044 381.205 336.145 381.205 336.145C381.205 336.145 388.092 340.33 396.588 344.215C403.14 341.401 407.931 334.701 408.85 329.999Z" fill="url(#paint25_linear_1_1379)"/>
<path d="M488.052 354.268C484.96 346.165 477.05 340.4 467.775 340.4C458.628 340.4 450.81 346.009 447.631 353.936C451.782 354.156 455.758 354.268 459.33 354.268H488.052Z" fill="url(#paint26_linear_1_1379)"/>
<path d="M488.052 354.978C487.906 354.978 487.764 354.934 487.644 354.852C487.524 354.77 487.432 354.654 487.38 354.519C484.32 346.499 476.442 341.109 467.775 341.109C459.131 341.109 451.485 346.246 448.297 354.198C448.222 354.365 448.084 354.497 447.912 354.566C447.741 354.635 447.549 354.635 447.377 354.568C447.205 354.5 447.066 354.37 446.989 354.203C446.912 354.037 446.903 353.848 446.964 353.675C450.37 345.18 458.539 339.691 467.775 339.691C477.035 339.691 485.452 345.448 488.723 354.018C488.764 354.125 488.778 354.241 488.764 354.355C488.749 354.469 488.708 354.578 488.642 354.672C488.576 354.766 488.487 354.843 488.385 354.897C488.282 354.95 488.168 354.978 488.052 354.978Z" fill="#AD7CF7"/>
<path d="M472.95 354.978C472.797 354.978 472.647 354.929 472.523 354.839C472.4 354.748 472.309 354.62 472.264 354.475C471.612 352.352 469.668 350.926 467.424 350.926C465.18 350.926 463.236 352.352 462.584 354.475C462.527 354.654 462.402 354.804 462.234 354.893C462.067 354.981 461.871 355.001 461.689 354.948C461.507 354.893 461.355 354.769 461.265 354.603C461.175 354.437 461.156 354.243 461.211 354.063C462.047 351.338 464.543 349.508 467.423 349.508C470.302 349.508 472.798 351.338 473.635 354.063C473.667 354.168 473.674 354.28 473.655 354.389C473.635 354.498 473.591 354.601 473.524 354.69C473.458 354.779 473.371 354.851 473.272 354.901C473.172 354.951 473.062 354.977 472.95 354.978Z" fill="#AD7CF7"/>
<path d="M374.872 314.811C374.394 313.866 372.182 307.247 376.724 303.878C381.037 300.679 386.539 300.175 389.571 302.341C391.868 303.983 395.461 307.06 395.546 311.442C395.606 314.515 393.215 317.234 393.215 317.234C393.215 317.234 395.427 319.598 395.307 322.553C395.164 326.097 392.798 328.226 392.798 328.226C392.798 328.226 394.053 334.55 390.467 335.909C387.565 337.008 385.388 335.258 383.476 335.318C381.799 335.37 381.891 336.552 381.891 336.552C381.891 336.552 377.909 336.778 376.664 334.727C375.05 332.067 376.306 328.108 376.306 328.108C376.306 328.108 373.451 324.205 373.318 320.07C373.199 316.348 374.872 314.811 374.872 314.811Z" fill="url(#paint27_linear_1_1379)"/>
<path d="M390.467 335.909C394.052 334.549 392.797 328.226 392.797 328.226C392.797 328.226 395.163 326.098 395.307 322.553C395.426 319.598 393.215 317.234 393.215 317.234C393.215 317.234 395.605 314.515 395.546 311.442C395.461 307.06 391.868 303.983 389.571 302.341C388.343 301.465 386.709 301.033 384.914 301.033C386.228 302.584 387.538 305.594 386.883 308.428C385.989 312.284 382.64 312.784 382.64 312.784C382.64 312.784 385.388 314.988 385.149 319.007C384.91 323.025 382.4 324.64 382.4 324.64C382.4 324.64 385.747 326.571 385.388 329.999C385.03 333.427 382.502 335.544 382.502 335.544C382.732 335.42 383.042 335.33 383.476 335.317C385.387 335.259 387.564 337.008 390.467 335.909Z" fill="url(#paint28_linear_1_1379)"/>
<path d="M398.012 296.608C397.564 291.514 400.708 287.402 400.312 284.106C399.932 280.952 391.598 279.733 388.853 284.377C386.403 288.52 387.626 294.691 388.006 296.965C389.553 298.147 391.836 299.131 393.951 299.191C395.532 299.234 397.048 297.779 398.012 296.608Z" fill="url(#paint29_linear_1_1379)"/>
<path d="M424.565 337.65C425.169 332.111 423.355 327.026 421.615 324.433C415.878 322.181 411.149 319.714 408.45 317.47C408.013 317.11 407.6 316.722 407.213 316.309C408.371 320.386 410.003 324.089 408.849 329.999C407.93 334.701 403.139 341.401 396.587 344.215C399.394 345.499 402.375 346.75 405.343 347.806C408.588 348.962 412.717 349.964 417.324 350.814C418.554 349.701 423.81 344.572 424.565 337.65Z" fill="url(#paint30_linear_1_1379)"/>
<path d="M505.962 354.977C505.834 354.977 505.709 354.944 505.599 354.88C505.489 354.816 505.398 354.724 505.336 354.614C505.274 354.503 505.243 354.379 505.245 354.253C505.248 354.126 505.285 354.003 505.352 353.896C512.224 342.874 506.647 334.43 504.897 332.932C504.753 332.809 504.665 332.634 504.651 332.446C504.638 332.258 504.7 332.073 504.825 331.931C504.949 331.789 505.126 331.701 505.316 331.688C505.506 331.675 505.693 331.736 505.837 331.86C507.769 333.516 513.971 342.775 506.574 354.64C506.51 354.743 506.419 354.828 506.312 354.887C506.205 354.947 506.085 354.978 505.962 354.977ZM393.752 318.032C393.647 318.032 393.543 318.009 393.447 317.964C393.352 317.92 393.267 317.855 393.2 317.775C391.57 315.823 386.182 313.648 383.79 313.368C381.627 313.12 378.813 313.8 375.171 315.456C375 315.524 374.809 315.525 374.637 315.457C374.466 315.39 374.327 315.26 374.25 315.094C374.173 314.929 374.163 314.74 374.223 314.567C374.283 314.395 374.408 314.251 374.571 314.167C378.459 312.398 381.525 311.677 383.957 311.96C386.69 312.279 392.413 314.607 394.304 316.872C394.39 316.975 394.445 317.101 394.462 317.234C394.479 317.367 394.457 317.503 394.4 317.624C394.342 317.746 394.25 317.849 394.136 317.921C394.021 317.993 393.888 318.031 393.752 318.032ZM393.125 329.319C392.979 329.319 392.835 329.274 392.715 329.191C392.595 329.108 392.503 328.991 392.452 328.855C391.945 327.487 387.842 325.425 384.344 325.191C380.745 324.954 376.783 328.817 376.744 328.855C376.678 328.923 376.599 328.977 376.512 329.015C376.424 329.052 376.33 329.071 376.235 329.072C376.14 329.073 376.045 329.055 375.957 329.02C375.869 328.984 375.789 328.931 375.722 328.865C375.654 328.798 375.601 328.719 375.565 328.632C375.529 328.545 375.511 328.451 375.511 328.357C375.512 328.263 375.532 328.17 375.569 328.083C375.607 327.997 375.662 327.919 375.73 327.853C375.91 327.675 380.191 323.489 384.44 323.775C387.994 324.013 392.962 326.113 393.798 328.365C393.838 328.472 393.851 328.587 393.837 328.7C393.822 328.814 393.78 328.922 393.714 329.015C393.647 329.109 393.559 329.186 393.457 329.238C393.355 329.291 393.241 329.319 393.125 329.319ZM406.536 348.92C406.376 348.92 406.22 348.866 406.094 348.768C405.969 348.67 405.88 348.533 405.841 348.379C405.803 348.225 405.819 348.062 405.885 347.918C405.95 347.773 406.063 347.655 406.205 347.581C406.278 347.543 413.598 343.69 415.761 334.913C416.971 329.998 415.935 324.809 414.371 321.848C414.294 321.682 414.285 321.494 414.344 321.321C414.404 321.149 414.528 321.006 414.691 320.921C414.855 320.837 415.045 320.818 415.222 320.868C415.399 320.919 415.55 321.035 415.643 321.192C417.207 324.154 418.542 329.614 417.153 335.249C414.832 344.674 407.188 348.676 406.864 348.842C406.762 348.893 406.65 348.92 406.536 348.92Z" fill="#AD7CF7"/>
<path d="M531.297 368.485C541.68 368.485 550.098 360.16 550.098 349.89C550.098 339.62 541.68 331.294 531.297 331.294C520.914 331.294 512.496 339.62 512.496 349.89C512.496 360.16 520.914 368.485 531.297 368.485Z" fill="url(#paint31_linear_1_1379)"/>
<path d="M542.358 339.777C541.829 339.413 541.176 339.272 540.542 339.385C539.907 339.498 539.345 339.855 538.977 340.378L530.006 353.13L520.057 344.697C519.692 344.391 519.225 344.231 518.747 344.247C518.269 344.264 517.815 344.457 517.473 344.787C517.131 345.118 516.926 345.563 516.898 346.035C516.87 346.507 517.021 346.973 517.322 347.341L528.207 360.504C528.54 360.906 528.967 361.221 529.452 361.422C529.936 361.624 530.463 361.705 530.986 361.658C531.51 361.611 532.013 361.439 532.454 361.155C532.894 360.871 533.257 360.485 533.512 360.031L533.571 359.926L543.097 342.913C543.385 342.392 543.469 341.784 543.333 341.206C543.197 340.627 542.85 340.118 542.358 339.777Z" fill="url(#paint32_linear_1_1379)"/>
<path d="M617.019 389.464C610.639 389.464 605.467 393.978 605.467 399.55C605.467 405.122 610.639 409.636 617.019 409.636C623.398 409.636 628.57 405.122 628.57 399.55C628.57 393.978 623.398 389.464 617.019 389.464ZM616.361 403.963C615.178 403.963 614.043 403.498 613.206 402.671C612.369 401.843 611.899 400.72 611.899 399.55C611.899 398.38 612.369 397.257 613.206 396.43C614.043 395.602 615.178 395.137 616.361 395.137C617.544 395.137 618.679 395.602 619.516 396.43C620.352 397.257 620.823 398.38 620.823 399.55C620.823 400.72 620.352 401.843 619.516 402.671C618.679 403.498 617.544 403.963 616.361 403.963Z" fill="url(#paint33_linear_1_1379)"/>
<path d="M610.606 422.191H584.276L577.106 381.483H617.776L610.606 422.191Z" fill="url(#paint34_linear_1_1379)"/>
<path d="M597.464 392.248C608.707 392.248 617.822 387.428 617.822 381.483C617.822 375.539 608.707 370.719 597.464 370.719C586.22 370.719 577.106 375.539 577.106 381.483C577.106 387.428 586.22 392.248 597.464 392.248Z" fill="#FF9BBB"/>
<path d="M597.464 387.52C605.744 387.52 612.457 384.468 612.457 380.704C612.457 376.94 605.744 373.889 597.464 373.889C589.183 373.889 582.471 376.94 582.471 380.704C582.471 384.468 589.183 387.52 597.464 387.52Z" fill="url(#paint35_linear_1_1379)"/>
<path d="M602.042 379.246C602.081 377.828 597.579 377.119 598.616 373.1C599.652 369.081 604.352 366.56 611.124 364.984C616.635 363.702 623.494 361.75 623.711 356.08C623.87 351.903 620.046 351.194 617.656 350.722C615.266 350.249 612.478 348.83 613.195 346.388C613.912 343.946 616.63 339.522 613.045 337.002C608.507 333.81 595.349 334.096 591.685 342.684C588.02 351.273 596.623 352.613 598.377 353.085C600.13 353.558 603.902 354.556 602.281 357.971C600.448 361.832 590.311 366.481 590.171 373.022C590.012 380.468 601.946 382.701 602.042 379.246Z" fill="url(#paint36_linear_1_1379)"/>
<path d="M576.787 330.708C579.695 331.062 580.93 333.978 580.293 337.642C579.569 341.804 577.744 344.182 580.054 347.176C582.364 350.169 586.348 351.509 585.073 353.48C583.798 355.45 573.441 353.638 569.697 346.23C565.92 338.76 570.146 329.899 576.787 330.708Z" fill="url(#paint37_linear_1_1379)"/>
<path d="M567.645 356.947C569.647 357.922 571.26 361.321 573.381 361.735C574.866 362.024 576.94 362.207 576.907 363.922C576.877 365.429 574.218 366.286 569.827 365.96C565.573 365.646 561.768 362.075 563.164 358.751C564.12 356.475 566.768 356.52 567.645 356.947Z" fill="url(#paint38_linear_1_1379)"/>
<path d="M653.864 425.815H532.333V437.004C532.333 444.837 538.754 451.187 546.673 451.187H654.404C654.67 447.775 654.828 444.262 654.86 440.628C654.896 435.673 654.563 430.722 653.864 425.815Z" fill="url(#paint39_linear_1_1379)"/>
<path d="M581.248 445.042C583.712 445.042 585.71 443.066 585.71 440.629C585.71 438.192 583.712 436.216 581.248 436.216C578.784 436.216 576.786 438.192 576.786 440.629C576.786 443.066 578.784 445.042 581.248 445.042Z" fill="#5265F9"/>
<path d="M628.73 451.897C628.54 451.897 628.357 451.822 628.223 451.689C628.088 451.556 628.013 451.376 628.013 451.188V430.18C628.013 429.992 628.088 429.812 628.223 429.679C628.357 429.546 628.54 429.471 628.73 429.471C628.92 429.471 629.102 429.546 629.237 429.679C629.371 429.812 629.447 429.992 629.447 430.18V451.188C629.447 451.376 629.371 451.556 629.237 451.689C629.102 451.822 628.92 451.897 628.73 451.897Z" fill="#FFA2BA"/>
<path d="M422.831 421.245V430.182H654.38C654.091 427.186 653.668 424.204 653.114 421.245H422.831Z" fill="url(#paint40_linear_1_1379)"/>
<path d="M303.888 537.903C304.1 547.478 303.69 612.719 302.892 622.018C305.931 625.776 311.337 621.703 311.337 621.703C311.337 621.703 315.718 603.974 317.71 579.94C319.434 559.149 319.941 538.494 319.941 538.494L303.888 537.903Z" fill="url(#paint41_linear_1_1379)"/>
<path d="M306.988 582.927C305.348 582.927 304.046 582.819 303.494 582.665C303.25 582.597 303.043 582.436 302.919 582.217C302.795 581.998 302.764 581.74 302.833 581.499C302.902 581.257 303.065 581.053 303.286 580.93C303.507 580.808 303.769 580.777 304.013 580.845C305.447 581.247 314.15 581.201 317.172 579.16C317.382 579.019 317.639 578.965 317.889 579.012C318.138 579.059 318.358 579.201 318.501 579.408C318.644 579.616 318.698 579.871 318.651 580.117C318.604 580.364 318.46 580.582 318.25 580.723C315.749 582.41 310.565 582.927 306.988 582.927Z" fill="#7B7BEF"/>
<path d="M221.792 395.242C212.681 396.464 182.011 406.456 178.324 427.26C178.206 427.922 179.393 429.573 179.608 430.228C187.017 452.803 220.477 483.179 233.264 485.306C233.828 485.401 234.631 485.991 235.197 485.773C244.01 482.399 253.188 465.655 260.749 460.249C264.036 457.899 221.792 395.242 221.792 395.242Z" fill="url(#paint42_linear_1_1379)"/>
<path d="M181.864 418.277C179.8 421.569 178.416 425.23 178.055 429.282C176.382 448.036 220.263 488.602 233.503 486.252C234.997 485.987 236.506 485.283 238.019 484.269C210.649 473.687 185.804 434.191 181.864 418.277Z" fill="url(#paint43_linear_1_1379)"/>
<path d="M301.379 501.617C309.983 501.6 353.504 502.395 360.89 506.818C366.944 510.443 368.253 516.455 364.643 522.128C361.034 527.801 343.921 538.376 309.505 538.612C275.089 538.848 253.101 531.639 252.862 523.365C252.623 515.091 256.514 502.717 277.718 500.672C290.784 499.411 296.599 501.627 301.379 501.617Z" fill="url(#paint44_linear_1_1379)"/>
<path d="M310.222 542.04C344.638 541.803 361.032 527.802 364.643 522.128C366.226 519.64 366.863 517.086 366.569 514.697C357.297 521.091 336.702 527.611 309.267 528.724C282.319 529.817 259.816 525.802 252.862 523.289L252.863 523.365C253.101 531.639 275.806 542.276 310.222 542.04Z" fill="url(#paint45_linear_1_1379)"/>
<path d="M231.931 669.967C234.538 662.519 250.831 635.413 284.41 623.437C316.076 612.143 341.079 621.657 347.559 626.487C354.038 631.317 343.376 639.945 337.935 635.595C332.091 630.923 316.795 626.313 299.116 631.156C275.886 637.52 254.895 656.689 254.757 671.103C238.522 680.958 231.931 669.967 231.931 669.967Z" fill="url(#paint46_linear_1_1379)"/>
<path d="M298.877 627.873C278.424 633.16 250.898 647.872 246.628 674.656C249.012 674.063 251.715 672.948 254.756 671.102C254.893 656.688 275.885 637.519 299.115 631.156C316.794 626.312 332.091 630.922 337.934 635.594C340.045 637.283 342.941 637.011 345.319 635.772C335.131 625.014 318.717 622.747 298.877 627.873Z" fill="#665EDB"/>
<path d="M243.142 686.473C249.83 686.473 255.252 681.111 255.252 674.496C255.252 667.881 249.83 662.519 243.142 662.519C236.454 662.519 231.033 667.881 231.033 674.496C231.033 681.111 236.454 686.473 243.142 686.473Z" fill="url(#paint47_linear_1_1379)"/>
<path d="M347.559 645.568C352.886 645.568 357.205 641.296 357.205 636.027C357.205 630.758 352.886 626.486 347.559 626.486C342.231 626.486 337.913 630.758 337.913 636.027C337.913 641.296 342.231 645.568 347.559 645.568Z" fill="url(#paint48_linear_1_1379)"/>
<path d="M243.142 678.2C241.077 678.2 239.398 676.538 239.398 674.496C239.398 672.454 241.077 670.792 243.142 670.792C245.207 670.792 246.887 672.454 246.887 674.496C246.887 676.538 245.207 678.2 243.142 678.2ZM243.142 672.211C241.868 672.211 240.832 673.236 240.832 674.496C240.832 675.756 241.868 676.781 243.142 676.781C244.417 676.781 245.453 675.756 245.453 674.496C245.453 673.236 244.417 672.211 243.142 672.211ZM347.559 639.731C345.494 639.731 343.814 638.069 343.814 636.027C343.814 633.985 345.494 632.323 347.559 632.323C349.624 632.323 351.303 633.985 351.303 636.027C351.303 638.069 349.624 639.731 347.559 639.731ZM347.559 633.742C346.284 633.742 345.248 634.767 345.248 636.027C345.248 637.287 346.284 638.312 347.559 638.312C348.833 638.312 349.869 637.287 349.869 636.027C349.869 634.767 348.833 633.742 347.559 633.742Z" fill="#7B7BEF"/>
<path d="M252.01 315.54C252.463 321.568 250.79 346.704 241.947 358.996C245.082 365.99 261.962 366.574 267.68 366.088C280.665 364.985 289.828 357.893 289.828 357.893C289.828 357.893 284.888 332.048 279.312 323.38C274.998 322.023 269.194 321.411 263.777 319.676C258.359 317.942 252.01 315.54 252.01 315.54Z" fill="url(#paint49_linear_1_1379)"/>
<path d="M286.96 285.873C280.1 274.465 269.945 265.976 268.318 264.283C268.318 264.283 238.801 258.761 230.715 280.988C226.015 293.911 240.116 308.251 240.116 308.251C240.116 308.251 241.405 308.736 243.366 309.749C242.63 310.362 242.039 311.126 241.633 311.989C241.227 312.852 241.017 313.792 241.018 314.743C241.018 316.478 241.715 318.141 242.955 319.368C244.195 320.595 245.877 321.284 247.631 321.284C248.957 321.283 250.252 320.889 251.348 320.15C252.444 319.412 253.29 318.365 253.777 317.145C253.889 317.253 254.002 317.353 254.113 317.463C258.916 322.199 277.284 331.78 288.097 321.964C297.476 313.452 292.858 295.685 286.96 285.873Z" fill="url(#paint50_linear_1_1379)"/>
<path d="M284.57 237.571C280.983 235.205 273.337 239.462 269.274 243.559C265.211 247.656 259.633 250.729 258.12 249.074C256.607 247.42 260.481 245.683 258.677 243.401C256.686 240.879 245.692 244.032 240.673 252.542C235.654 261.052 231.671 272.477 227.449 273.738C223.226 275 224.421 268.459 220.04 268.301C215.658 268.143 210.081 273.738 208.727 278.151C206.715 284.709 208.648 289.419 211.755 289.656C217.347 290.081 220.598 281.54 224.501 283.51C227.168 284.855 225.378 290.522 223.944 295.407C222.51 300.293 224.342 306.833 230.078 311.324C234.369 314.684 238.473 315.386 241.054 315.421C241.031 315.196 241.019 314.969 241.019 314.742C241.019 311.273 243.751 308.443 247.203 308.223C247.622 306.565 247.721 304.83 247.127 303.286C245.215 298.322 231.783 287.488 234.3 281.853C235.814 278.465 239.877 278.386 247.206 278.149C254.536 277.913 259.045 278.531 259.794 275.707C260.67 272.397 254.089 273.61 254.536 271.846C255.253 269.009 267.332 271.265 277.639 260.499C287.596 250.099 288.155 239.935 284.57 237.571Z" fill="url(#paint51_linear_1_1379)"/>
<path d="M270.787 307.936C270.787 307.936 275.727 307.542 278.435 307.227C281.143 306.912 287.916 306.439 287.916 306.439C287.916 306.439 285.526 313.846 280.029 314.477C274.532 315.107 270.787 307.936 270.787 307.936Z" fill="white"/>
<path d="M257.391 296.768C257.307 296.768 257.223 296.746 257.15 296.704C257.077 296.661 257.016 296.6 256.975 296.527C255.78 294.428 256.048 291.957 257.642 290.38C259.074 288.964 261.291 288.596 263.292 289.445C263.352 289.468 263.406 289.503 263.452 289.547C263.498 289.591 263.534 289.644 263.559 289.703C263.583 289.761 263.596 289.824 263.596 289.887C263.596 289.95 263.583 290.013 263.557 290.071C263.532 290.13 263.495 290.182 263.449 290.226C263.403 290.27 263.349 290.304 263.289 290.327C263.229 290.35 263.165 290.36 263.101 290.358C263.037 290.356 262.974 290.341 262.916 290.314C261.277 289.618 259.472 289.907 258.318 291.049C257.03 292.322 256.825 294.338 257.807 296.064C257.848 296.136 257.869 296.217 257.869 296.3C257.868 296.382 257.845 296.463 257.803 296.534C257.761 296.605 257.701 296.664 257.629 296.705C257.557 296.747 257.475 296.768 257.391 296.768ZM275.989 282.602C275.882 282.602 275.779 282.567 275.695 282.502C275.611 282.437 275.552 282.347 275.526 282.245C275.13 280.693 275.462 279.25 276.435 278.288C277.58 277.155 279.422 276.911 281.238 277.652C281.355 277.7 281.448 277.792 281.497 277.908C281.546 278.023 281.546 278.154 281.498 278.27C281.45 278.386 281.357 278.478 281.24 278.526C281.123 278.574 280.991 278.575 280.874 278.527C279.42 277.934 277.978 278.099 277.11 278.957C276.38 279.678 276.141 280.793 276.452 282.015C276.47 282.085 276.471 282.157 276.456 282.228C276.441 282.298 276.41 282.364 276.365 282.42C276.32 282.477 276.263 282.523 276.198 282.554C276.133 282.586 276.061 282.602 275.989 282.602Z" fill="#212F66"/>
<path d="M256.765 171.022C256.964 171.772 257.043 172.256 257.122 172.777C257.201 173.283 257.247 173.77 257.294 174.253C257.373 175.219 257.413 176.165 257.414 177.112C257.412 179.003 257.328 180.881 257.239 182.756C257.054 186.505 256.699 190.247 256.458 193.981C256.151 197.717 256.004 201.444 255.962 205.164C255.948 206.094 255.954 207.024 255.986 207.951C255.999 208.88 256.049 209.806 256.105 210.733C256.157 211.659 256.242 212.584 256.344 213.504C256.45 214.406 256.572 215.385 256.772 216.179C256.845 216.468 256.854 216.769 256.799 217.062C256.744 217.354 256.626 217.632 256.453 217.875C256.28 218.119 256.057 218.323 255.797 218.474C255.538 218.624 255.248 218.718 254.949 218.749C254.65 218.779 254.347 218.745 254.062 218.65C253.777 218.555 253.516 218.4 253.296 218.197C253.077 217.993 252.905 217.745 252.79 217.469C252.676 217.194 252.624 216.898 252.635 216.6L252.637 216.567C252.683 215.509 252.726 214.632 252.735 213.678C252.748 212.746 252.74 211.814 252.712 210.882C252.689 209.953 252.646 209.024 252.583 208.096C252.533 207.167 252.46 206.24 252.365 205.315C252.002 201.61 251.538 197.911 250.897 194.224L249.045 183.179C248.759 181.343 248.468 179.511 248.226 177.693C248.111 176.796 248.018 175.895 247.949 174.993C247.92 174.549 247.886 174.111 247.872 173.694C247.853 173.291 247.837 172.849 247.863 172.687L248.054 171.465C248.144 170.893 248.346 170.344 248.65 169.85C248.954 169.355 249.354 168.925 249.826 168.583C250.298 168.241 250.834 167.995 251.402 167.858C251.971 167.721 252.561 167.696 253.139 167.785C253.996 167.917 254.796 168.294 255.44 168.869C256.084 169.444 256.544 170.192 256.765 171.022Z" fill="url(#paint52_linear_1_1379)"/>
<path d="M225.062 192.001C225.21 192.694 225.612 193.912 226.005 195.053L227.296 198.633C228.181 201.061 229.139 203.503 229.927 206.037L231.189 209.816C231.634 211.062 232.127 212.291 232.666 213.5C233.188 214.704 233.76 215.886 234.381 217.043C234.691 217.613 234.996 218.186 235.333 218.719C235.667 219.241 236.023 219.789 236.352 220.141L236.365 220.156C236.513 220.318 236.627 220.508 236.7 220.714C236.774 220.92 236.806 221.139 236.794 221.357C236.782 221.575 236.727 221.789 236.632 221.986C236.536 222.183 236.403 222.36 236.238 222.506C236.074 222.652 235.882 222.765 235.673 222.838C235.465 222.91 235.244 222.942 235.024 222.93C234.803 222.918 234.587 222.864 234.387 222.77C234.188 222.675 234.009 222.543 233.862 222.38C233.363 221.811 232.898 221.214 232.469 220.592C232.06 220.014 231.659 219.449 231.277 218.874L229.017 215.445C228.275 214.298 227.522 213.159 226.756 212.028C225.971 210.903 225.203 209.767 224.453 208.62C222.921 206.334 221.654 203.913 220.482 201.407C219.887 200.134 219.35 198.835 218.872 197.514C218.62 196.817 218.397 196.109 218.204 195.392C218.097 195.001 218.005 194.606 217.928 194.209C217.883 193.986 217.845 193.762 217.815 193.537L217.761 193.095L217.744 192.843C217.688 191.925 217.984 191.019 218.575 190.308C219.165 189.597 220.005 189.132 220.927 189.008C221.849 188.884 222.784 189.109 223.545 189.638C224.306 190.167 224.837 190.961 225.031 191.861L225.062 192.001Z" fill="url(#paint53_linear_1_1379)"/>
<path d="M283.228 182.106L282.464 186.301C282.186 187.727 281.887 189.148 281.567 190.565C280.905 193.408 280.061 196.236 278.903 199.024C278.607 199.727 278.281 200.417 277.926 201.093C277.752 201.435 277.555 201.774 277.364 202.109L276.825 203.01C276.113 204.214 275.378 205.402 274.711 206.612C274.038 207.817 273.403 209.035 272.896 210.255C272.391 211.453 272.003 212.733 272.06 213.665C272.077 213.952 272.034 214.239 271.933 214.508C271.832 214.777 271.675 215.022 271.472 215.228C271.269 215.433 271.025 215.594 270.755 215.7C270.485 215.807 270.196 215.856 269.906 215.845C269.616 215.834 269.331 215.763 269.071 215.636C268.81 215.51 268.579 215.33 268.393 215.11C268.206 214.89 268.069 214.633 267.989 214.357C267.909 214.081 267.889 213.792 267.929 213.507L267.943 213.41C268.213 211.544 268.857 210.172 269.429 208.802C270.027 207.452 270.64 206.162 271.238 204.874L273.019 201.036L273.463 200.082C273.589 199.793 273.718 199.513 273.833 199.217C274.069 198.633 274.281 198.031 274.47 197.413C275.249 194.951 275.644 192.303 275.91 189.64C276.189 186.954 276.211 184.299 276.211 181.459C276.211 180.973 276.312 180.493 276.51 180.048C276.707 179.604 276.995 179.204 277.357 178.876C277.719 178.548 278.145 178.297 278.61 178.141C279.075 177.984 279.567 177.925 280.056 177.967C280.545 178.009 281.02 178.151 281.451 178.384C281.881 178.618 282.258 178.937 282.557 179.322C282.856 179.707 283.071 180.149 283.188 180.621C283.305 181.092 283.321 181.583 283.236 182.061L283.228 182.106Z" fill="url(#paint54_linear_1_1379)"/>
<path d="M295.033 205.461C294.211 207.178 293.087 208.315 292.015 209.387C290.93 210.45 289.804 211.392 288.721 212.342C287.639 213.292 286.557 214.214 285.582 215.18C285.108 215.646 284.662 216.139 284.248 216.658C283.863 217.154 283.555 217.687 283.483 218.108L283.465 218.213C283.428 218.428 283.312 218.623 283.14 218.758C282.967 218.894 282.75 218.962 282.53 218.949C282.31 218.936 282.102 218.843 281.947 218.688C281.792 218.533 281.701 218.326 281.69 218.108C281.639 217.08 281.984 216.265 282.32 215.531C282.672 214.797 283.09 214.142 283.523 213.514C284.392 212.261 285.322 211.11 286.251 209.991C287.181 208.873 288.087 207.764 288.93 206.681C289.759 205.598 290.545 204.515 290.933 203.61C291.048 203.341 291.216 203.096 291.427 202.891C291.638 202.685 291.888 202.523 292.162 202.413C292.436 202.303 292.73 202.248 293.026 202.25C293.322 202.252 293.614 202.312 293.887 202.426C294.159 202.54 294.407 202.707 294.614 202.915C294.822 203.124 294.986 203.371 295.097 203.642C295.208 203.913 295.264 204.204 295.262 204.496C295.26 204.789 295.199 205.079 295.084 205.348L295.049 205.426L295.033 205.461Z" fill="url(#paint55_linear_1_1379)"/>
<path d="M286.272 273.855C284.089 270.799 280.728 268.901 277.502 268.901C275.954 268.901 274.504 269.342 273.307 270.179C269.905 272.557 269.259 277.588 271.556 281.977C269.509 282.333 267.757 283.921 266.662 285.323C264.738 283.26 261.994 281.958 258.939 281.958C253.14 281.958 248.423 286.624 248.423 292.359C248.423 294.716 249.229 296.886 250.571 298.631C248.356 300.933 244.024 306.596 242.192 310.623L242.423 310.725C243.206 309.732 244.262 308.984 245.465 308.571C247.503 305.216 250.345 301.645 251.865 300.031C253.795 301.785 256.32 302.759 258.941 302.76C264.74 302.76 269.457 298.094 269.457 292.359C269.457 290.353 268.87 288.484 267.872 286.895C268.747 285.66 270.701 283.568 272.744 283.824C274.928 286.679 278.146 288.449 281.251 288.449C282.799 288.449 284.249 288.007 285.446 287.17C289.246 284.512 289.617 278.539 286.272 273.855ZM258.939 300.868C254.195 300.868 250.335 297.05 250.335 292.358C250.335 287.666 254.196 283.848 258.939 283.848C263.683 283.848 267.543 287.666 267.543 292.358C267.543 297.05 263.684 300.868 258.939 300.868ZM284.341 285.624C283.468 286.234 282.4 286.556 281.25 286.556C278.634 286.556 275.872 284.964 274.041 282.402C271.303 278.569 271.47 273.778 274.41 271.723C275.295 271.105 276.335 270.792 277.501 270.792C280.117 270.792 282.879 272.384 284.709 274.947C287.448 278.778 287.282 283.568 284.341 285.624Z" fill="url(#paint56_linear_1_1379)"/>
<path d="M223.997 285.208L223.932 285.207C223.681 285.199 223.434 285.142 223.205 285.039C222.976 284.936 222.77 284.79 222.599 284.609C222.427 284.427 222.294 284.214 222.206 283.982C222.117 283.749 222.076 283.502 222.085 283.253C222.215 279.407 223.352 273.94 224.963 271.815C225.267 271.414 225.72 271.149 226.222 271.078C226.724 271.007 227.234 271.136 227.64 271.437C228.046 271.738 228.314 272.186 228.385 272.682C228.457 273.179 228.327 273.683 228.022 274.084C227.168 275.211 226.034 279.608 225.907 283.379C225.89 283.87 225.682 284.334 225.326 284.676C224.969 285.017 224.493 285.208 223.997 285.208Z" fill="#FF57BC"/>
<path d="M272.741 283.817C276.99 285.406 286.734 291.551 287.278 294.777C287.677 297.141 280.268 299.583 279.709 298.795C279.151 298.008 277.16 293.753 274.611 290.127C272.714 287.43 270.729 285.518 270.485 284.384C270.873 284.178 271.923 283.647 272.741 283.817Z" fill="url(#paint57_linear_1_1379)"/>
<path d="M194.895 260.203C191.334 236.462 193.522 221.797 193.829 216.65C194.307 208.613 199.446 201.916 201.716 195.966C203.585 191.071 206.217 187.929 204.465 186.747C201.873 185 197.175 191.081 197.175 191.081C197.175 191.081 197.932 175.243 194.427 175.401C191.439 175.535 193.351 184.738 191.678 185.211C190.005 185.684 187.177 176.583 184.628 176.937C183.247 177.129 183.034 180.443 183.034 180.443C183.034 180.443 182.293 179.828 181.521 180.483C180.405 181.429 181.383 187.006 180.445 189.229C180.051 188.679 179.752 188.279 179.171 188.402C174.689 189.348 175.467 212.321 174.789 217.478C173.702 225.737 172.857 242.11 173.892 261.793C178.136 262.265 186.031 262.537 194.895 260.203Z" fill="url(#paint58_linear_1_1379)"/>
<path d="M345.485 246.331C344.574 237.664 343.822 231.149 343.682 228.981C343.204 221.575 342.886 215.429 342.088 208.494C341.291 201.559 338.583 193.996 338.105 191.474C337.627 188.952 338.517 185.519 337.288 182.668C336.253 180.265 334.998 181.23 334.998 181.23C334.998 181.23 334.913 177.804 333.404 177.921C331.611 178.059 329.221 188.932 327.986 189.109C327.277 189.211 328.146 176.699 325.995 176.462C324.451 176.292 323.306 178.413 321.812 185.268C320.524 191.184 322.418 201.639 321.454 201.639C320.378 201.639 319.781 196.911 318.705 193.838C317.63 190.765 316.375 187.751 314.762 187.928C313.158 188.105 312.886 191.847 313.603 197.165C314.173 201.389 320.976 222.677 323.844 232.369C324.962 236.147 325.679 242.154 326.04 248.971C330.013 249.528 337.179 249.663 345.485 246.331Z" fill="url(#paint59_linear_1_1379)"/>
<path d="M180.309 188.619C180.718 189.18 181.004 189.854 181.138 190.557C181.205 190.908 181.241 191.268 181.243 191.63C181.242 191.999 181.223 192.34 181.139 192.741C181.126 192.806 181.099 192.868 181.06 192.922C181.022 192.976 180.972 193.022 180.914 193.056C180.857 193.09 180.793 193.112 180.726 193.12C180.66 193.128 180.592 193.122 180.528 193.103C180.464 193.083 180.404 193.051 180.353 193.008C180.303 192.964 180.261 192.911 180.233 192.851C180.204 192.791 180.188 192.726 180.187 192.659C180.185 192.593 180.198 192.527 180.223 192.466L180.228 192.454C180.331 192.206 180.416 191.876 180.469 191.571C180.523 191.259 180.548 190.941 180.544 190.62C180.537 189.968 180.386 189.325 180.102 188.737C180.095 188.723 180.091 188.707 180.09 188.692C180.089 188.676 180.091 188.661 180.096 188.646C180.102 188.632 180.11 188.618 180.12 188.606C180.13 188.595 180.143 188.585 180.157 188.579C180.183 188.567 180.213 188.565 180.241 188.572C180.268 188.58 180.293 188.596 180.309 188.619ZM183.191 179.341C183.054 180.592 183.223 181.851 183.447 183.092C183.562 183.713 183.698 184.331 183.843 184.951C183.985 185.574 184.146 186.181 184.266 186.846C184.275 186.908 184.271 186.97 184.255 187.03C184.239 187.091 184.211 187.147 184.173 187.196C184.135 187.246 184.087 187.287 184.033 187.318C183.979 187.35 183.919 187.37 183.856 187.378C183.794 187.387 183.731 187.383 183.67 187.367C183.61 187.351 183.553 187.323 183.503 187.286C183.453 187.248 183.411 187.201 183.379 187.148C183.348 187.094 183.327 187.035 183.319 186.973L183.318 186.965C183.264 186.366 183.157 185.724 183.07 185.092C182.978 184.455 182.9 183.816 182.837 183.176C182.722 181.895 182.663 180.581 182.918 179.303C182.925 179.267 182.946 179.236 182.976 179.215C183.006 179.195 183.043 179.187 183.079 179.193C183.113 179.199 183.143 179.218 183.164 179.245C183.185 179.272 183.194 179.307 183.191 179.341ZM192.474 182.614C192.498 183.719 192.435 184.824 192.353 185.925C192.31 186.477 192.258 187.027 192.198 187.577C192.134 188.132 192.076 188.669 191.961 189.252C191.949 189.316 191.924 189.376 191.888 189.43C191.851 189.484 191.804 189.53 191.748 189.565C191.693 189.6 191.631 189.624 191.567 189.634C191.502 189.644 191.436 189.642 191.372 189.626C191.308 189.61 191.249 189.581 191.197 189.541C191.145 189.501 191.102 189.452 191.07 189.395C191.039 189.338 191.019 189.275 191.013 189.211C191.007 189.146 191.014 189.081 191.035 189.019L191.038 189.008C191.192 188.526 191.319 187.979 191.44 187.452C191.56 186.92 191.672 186.385 191.777 185.849C191.983 184.775 192.168 183.695 192.269 182.606C192.27 182.592 192.274 182.579 192.28 182.567C192.286 182.555 192.295 182.544 192.305 182.536C192.316 182.527 192.328 182.521 192.341 182.517C192.354 182.513 192.368 182.511 192.382 182.513C192.407 182.516 192.43 182.528 192.447 182.546C192.464 182.565 192.474 182.589 192.474 182.614ZM198.597 189.379C197.751 190.25 197.213 191.391 196.628 192.47L194.937 195.777C194.36 196.877 193.759 197.971 193.058 199.022C192.339 200.053 191.582 201.12 190.341 201.826C190.231 201.888 190.1 201.905 189.977 201.872C189.855 201.839 189.751 201.76 189.688 201.651C189.624 201.542 189.608 201.413 189.641 201.292C189.674 201.171 189.754 201.068 189.864 201.005L189.889 200.992L189.907 200.983C190.885 200.506 191.705 199.544 192.429 198.588C193.156 197.612 193.804 196.564 194.432 195.503L196.289 192.287C196.935 191.232 197.525 190.115 198.461 189.239C198.48 189.223 198.504 189.215 198.528 189.216C198.553 189.218 198.576 189.228 198.593 189.245C198.61 189.262 198.621 189.285 198.622 189.309C198.623 189.333 198.615 189.357 198.599 189.376L198.597 189.379ZM320.875 200.098C321.128 200.88 321.653 201.531 322.239 202.127C322.83 202.719 323.486 203.256 324.161 203.777C324.835 204.301 325.53 204.805 326.209 205.36C326.548 205.64 326.884 205.93 327.2 206.27C327.502 206.616 327.841 206.996 327.945 207.618C327.956 207.68 327.954 207.742 327.939 207.803C327.925 207.864 327.899 207.921 327.862 207.971C327.826 208.022 327.78 208.065 327.726 208.098C327.673 208.131 327.613 208.153 327.551 208.163C327.489 208.173 327.426 208.171 327.365 208.157C327.303 208.143 327.246 208.117 327.195 208.081C327.143 208.045 327.1 207.999 327.067 207.946C327.033 207.893 327.011 207.835 327.001 207.773L326.995 207.724V207.717C326.981 207.481 326.778 207.143 326.529 206.847C326.263 206.536 325.976 206.244 325.669 205.972C325.048 205.407 324.378 204.865 323.725 204.299C323.071 203.736 322.423 203.151 321.836 202.496C321.259 201.847 320.714 201.094 320.482 200.226L320.478 200.213C320.464 200.16 320.472 200.104 320.5 200.058C320.527 200.011 320.572 199.976 320.625 199.962C320.676 199.949 320.731 199.956 320.777 199.981C320.824 200.006 320.859 200.048 320.875 200.098ZM335.281 180.644C335.367 181.422 335.358 182.186 335.361 182.952C335.358 183.718 335.341 184.482 335.318 185.246C335.265 186.777 335.208 188.293 335.075 189.841C335.064 189.966 335.004 190.082 334.907 190.163C334.81 190.244 334.684 190.283 334.557 190.273C334.431 190.262 334.314 190.202 334.232 190.106C334.15 190.01 334.11 189.886 334.121 189.761L334.125 189.732L334.126 189.72C334.35 188.24 334.51 186.714 334.66 185.205C334.732 184.448 334.799 183.69 334.851 182.934C334.898 182.178 334.955 181.415 334.92 180.673C334.918 180.625 334.934 180.579 334.966 180.544C334.998 180.508 335.043 180.487 335.09 180.484C335.186 180.479 335.268 180.551 335.281 180.644Z" fill="#C66C50"/>
<path d="M317.392 437.32C315.241 419.59 316.591 395.438 323.845 376.804C329.182 363.093 344.956 338.667 348.462 316.052C350.818 300.848 347.688 267.291 345.485 246.332C337.179 249.662 330.012 249.528 326.041 248.972C326.607 259.645 326.3 272.307 325.279 281.539C323.606 296.668 313.568 325.508 300.901 341.582C288.234 357.657 276.523 359.075 266.724 359.075C252.264 359.075 225.257 356.475 207.691 308.724C200.701 289.724 196.895 273.537 194.895 260.203C186.031 262.537 178.136 262.266 173.89 261.793C174.749 278.162 176.908 296.819 181.32 315.028C186.891 338.02 197.094 361.675 206.654 379.484C215.281 395.553 219.778 423.22 228.96 446.303C234.806 460.997 242.674 482.752 257.054 497.343C258.521 476.4 286.164 455.442 317.392 437.32Z" fill="url(#paint60_linear_1_1379)"/>
<path d="M179.27 291.662C178.35 291.662 177.462 291.611 176.613 291.506C176.518 291.497 176.425 291.469 176.341 291.425C176.256 291.38 176.182 291.318 176.121 291.244C176.061 291.17 176.017 291.085 175.99 290.994C175.964 290.903 175.957 290.807 175.969 290.713C175.98 290.619 176.011 290.528 176.059 290.446C176.107 290.363 176.171 290.292 176.248 290.234C176.324 290.177 176.412 290.136 176.505 290.112C176.598 290.089 176.694 290.085 176.789 290.099C183.171 290.883 191.91 288.485 199.601 283.846C199.682 283.798 199.771 283.765 199.864 283.751C199.957 283.737 200.052 283.74 200.144 283.762C200.235 283.784 200.321 283.824 200.398 283.879C200.474 283.934 200.538 284.003 200.587 284.082C200.636 284.162 200.669 284.25 200.683 284.342C200.698 284.434 200.694 284.528 200.672 284.619C200.649 284.709 200.609 284.795 200.554 284.87C200.498 284.945 200.428 285.009 200.348 285.057C193.405 289.246 185.591 291.662 179.27 291.662ZM185.215 329.681C185.036 329.68 184.863 329.613 184.731 329.492C184.599 329.371 184.518 329.205 184.504 329.028C184.489 328.851 184.543 328.675 184.654 328.535C184.764 328.395 184.924 328.301 185.102 328.272C189.387 327.583 204.947 318.728 209.148 313.473C209.269 313.334 209.439 313.247 209.624 313.23C209.808 313.212 209.992 313.266 210.137 313.38C210.283 313.493 210.378 313.658 210.403 313.84C210.429 314.021 210.382 314.205 210.273 314.353C205.818 319.925 189.904 328.937 185.332 329.672C185.293 329.678 185.255 329.681 185.215 329.681ZM195.712 357.591C195.531 357.591 195.357 357.523 195.224 357.402C195.091 357.28 195.01 357.113 194.997 356.934C194.983 356.755 195.039 356.578 195.152 356.438C195.265 356.298 195.428 356.206 195.607 356.18C200.131 355.512 218.868 341.847 221.665 336.428C221.708 336.345 221.767 336.272 221.838 336.211C221.91 336.151 221.993 336.105 222.082 336.076C222.172 336.048 222.266 336.037 222.36 336.044C222.454 336.051 222.546 336.077 222.63 336.119C222.713 336.162 222.788 336.22 222.849 336.291C222.91 336.362 222.957 336.444 222.986 336.532C223.015 336.621 223.026 336.714 223.018 336.807C223.011 336.9 222.985 336.99 222.942 337.073C219.941 342.888 200.679 356.866 195.819 357.583C195.784 357.588 195.748 357.591 195.712 357.591ZM206.655 380.192C206.478 380.191 206.308 380.127 206.177 380.01C206.046 379.893 205.962 379.733 205.943 379.559C205.924 379.386 205.97 379.212 206.073 379.07C206.176 378.928 206.328 378.828 206.5 378.79C210.549 377.901 235.327 361.073 239.676 352.616C239.719 352.533 239.777 352.459 239.849 352.399C239.92 352.338 240.003 352.292 240.093 352.263C240.182 352.234 240.276 352.223 240.37 352.231C240.464 352.238 240.556 352.263 240.64 352.305C240.724 352.347 240.798 352.406 240.859 352.476C240.921 352.547 240.967 352.629 240.996 352.717C241.026 352.806 241.037 352.899 241.03 352.992C241.022 353.085 240.997 353.175 240.954 353.258C236.433 362.049 211.363 379.173 206.812 380.174C206.76 380.186 206.708 380.192 206.655 380.192ZM336.005 282.426C331.603 282.426 327.386 281.965 325.171 281.322C324.991 281.268 324.84 281.145 324.75 280.98C324.661 280.816 324.641 280.624 324.694 280.445C324.747 280.266 324.869 280.115 325.034 280.024C325.199 279.934 325.394 279.911 325.575 279.962C330.099 281.277 343.11 281.714 348.126 279.131C348.294 279.051 348.487 279.039 348.664 279.097C348.84 279.155 348.987 279.279 349.073 279.442C349.159 279.606 349.178 279.796 349.124 279.972C349.071 280.149 348.95 280.298 348.788 280.388C345.911 281.869 340.846 282.426 336.005 282.426ZM343.634 312.211C334.227 312.211 321.975 308.155 318.827 306.586C318.659 306.5 318.531 306.353 318.472 306.175C318.414 305.997 318.428 305.803 318.513 305.636C318.598 305.469 318.747 305.342 318.926 305.282C319.106 305.223 319.302 305.236 319.471 305.319C322.961 307.059 337.916 311.94 347.154 310.554C347.342 310.527 347.532 310.575 347.684 310.686C347.837 310.798 347.938 310.964 347.966 311.15C347.995 311.335 347.948 311.524 347.836 311.675C347.724 311.826 347.556 311.927 347.369 311.957C346.201 312.132 344.945 312.211 343.634 312.211ZM340.615 342.13H340.604C324.918 341.884 312.555 330.798 309.825 326.787C309.721 326.631 309.684 326.44 309.721 326.257C309.758 326.074 309.867 325.912 310.023 325.808C310.18 325.704 310.372 325.665 310.558 325.699C310.743 325.734 310.907 325.84 311.015 325.994C313.632 329.841 325.512 340.474 340.626 340.711C340.816 340.712 340.998 340.788 341.131 340.922C341.265 341.056 341.339 341.237 341.338 341.426C341.337 341.614 341.26 341.794 341.124 341.926C340.989 342.058 340.805 342.131 340.615 342.13ZM325.659 373.263C325.636 373.263 325.613 373.263 325.59 373.261C311.952 371.968 292.629 356.713 290.528 351.68C290.489 351.594 290.468 351.5 290.466 351.405C290.464 351.311 290.482 351.216 290.517 351.128C290.553 351.04 290.606 350.96 290.673 350.893C290.741 350.825 290.821 350.772 290.91 350.736C290.998 350.699 291.093 350.681 291.189 350.682C291.285 350.683 291.38 350.703 291.468 350.74C291.556 350.778 291.635 350.833 291.701 350.901C291.768 350.97 291.819 351.051 291.853 351.139C293.81 355.829 312.814 370.625 325.725 371.849C325.908 371.868 326.076 371.954 326.195 372.092C326.315 372.229 326.377 372.406 326.368 372.587C326.359 372.768 326.281 372.939 326.149 373.065C326.017 373.191 325.842 373.262 325.659 373.263ZM246.768 384.638C227.131 384.638 211.317 383.624 207.66 382.55C207.478 382.496 207.325 382.373 207.234 382.208C207.143 382.042 207.123 381.848 207.177 381.668C207.231 381.487 207.355 381.335 207.523 381.246C207.69 381.156 207.886 381.136 208.069 381.189C216.383 383.63 288.183 385.738 323.655 376.119C323.746 376.094 323.84 376.087 323.934 376.098C324.028 376.11 324.118 376.139 324.2 376.185C324.282 376.231 324.354 376.293 324.411 376.367C324.469 376.441 324.511 376.525 324.535 376.615C324.56 376.705 324.567 376.799 324.555 376.891C324.544 376.984 324.514 377.073 324.467 377.154C324.42 377.235 324.358 377.306 324.284 377.363C324.209 377.42 324.124 377.462 324.033 377.486C303.92 382.942 272.152 384.638 246.768 384.638ZM219.676 418.316C219.517 418.317 219.361 418.264 219.235 418.167C219.109 418.071 219.019 417.935 218.98 417.782C218.94 417.629 218.954 417.467 219.018 417.322C219.082 417.178 219.194 417.058 219.334 416.983C232.792 409.763 270.778 396.452 318.221 397.77C318.617 397.781 318.928 398.107 318.918 398.499C318.907 398.892 318.584 399.228 318.181 399.189C271.041 397.89 233.358 411.073 220.017 418.231C219.912 418.287 219.795 418.316 219.676 418.316ZM227.431 443.007C227.28 443.007 227.133 442.961 227.011 442.874C226.888 442.787 226.797 442.664 226.749 442.523C226.701 442.381 226.699 442.229 226.744 442.087C226.789 441.944 226.878 441.82 226.998 441.73C249.006 425.353 279.122 416.738 316.512 416.126C316.607 416.123 316.701 416.14 316.789 416.174C316.877 416.208 316.957 416.259 317.025 416.323C317.092 416.388 317.146 416.466 317.184 416.552C317.221 416.638 317.24 416.73 317.241 416.823C317.243 416.916 317.225 417.009 317.191 417.096C317.156 417.182 317.105 417.261 317.039 417.328C316.974 417.395 316.895 417.449 316.809 417.486C316.723 417.523 316.63 417.542 316.535 417.544C279.455 418.152 249.62 426.67 227.86 442.864C227.736 442.957 227.586 443.007 227.431 443.007ZM237.056 466.725C236.918 466.725 236.783 466.685 236.668 466.612C236.552 466.538 236.46 466.433 236.403 466.309C236.346 466.185 236.327 466.048 236.346 465.913C236.366 465.779 236.424 465.652 236.514 465.55C239.207 462.486 280.804 434.83 316.762 430.923C317.156 430.865 317.51 431.162 317.554 431.55C317.574 431.737 317.519 431.925 317.4 432.071C317.281 432.218 317.108 432.312 316.919 432.332C283.045 436.012 240.924 462.694 237.597 466.48C237.53 466.557 237.447 466.619 237.353 466.661C237.26 466.704 237.158 466.725 237.056 466.725Z" fill="#FFA2BA"/>
<path d="M349.293 299.897C335.63 309.663 342.882 326.207 345.101 329.624C346.584 325.093 347.767 320.537 348.463 316.052C349.113 311.852 349.343 306.246 349.293 299.897Z" fill="url(#paint61_linear_1_1379)"/>
<path d="M178.587 302.184C179.387 306.466 180.286 310.76 181.321 315.028C182.444 319.666 183.764 324.328 185.221 328.967C196.771 318.966 188.654 303.062 178.587 302.184Z" fill="url(#paint62_linear_1_1379)"/>
<path d="M372.284 469.464C372.284 469.464 306.876 498.937 314.046 503.35C321.216 507.763 340.419 513.552 355.95 518.952C373.508 525.056 389.57 532.662 389.57 532.662C389.57 532.662 378.217 543.576 367.264 556.459C366.325 557.569 365.406 558.695 364.509 559.838C368.258 565.16 377.702 574.32 391.556 577.517C408.215 566.199 436.411 546.049 438.087 529.274C440.379 506.334 377.436 471.718 372.284 469.464Z" fill="url(#paint63_linear_1_1379)"/>
<path d="M429.62 510.712C425.567 516.216 420.232 531.32 431.107 544.108C434.991 539.078 437.612 534.04 438.088 529.275C438.656 523.581 435.205 517.171 429.62 510.712Z" fill="url(#paint64_linear_1_1379)"/>
<path d="M364.51 559.838C354.987 571.935 342.447 591.675 341.868 593.68C341.23 595.886 342.408 602.634 344.479 607.677C346.549 612.721 358.022 628.203 360.093 626.273C362.886 623.67 359.615 604.368 360.731 600.743C361.846 597.117 370.689 591.918 382.878 583.408C385.009 581.919 388.025 579.917 391.556 577.518C377.702 574.321 368.258 565.16 364.51 559.838Z" fill="url(#paint65_linear_1_1379)"/>
<path d="M396.998 574.485C396.957 574.485 396.917 574.482 396.877 574.474C387.343 572.866 370.845 560.11 367.613 555.802C367.507 555.65 367.465 555.464 367.496 555.283C367.526 555.101 367.627 554.939 367.776 554.829C367.925 554.719 368.112 554.671 368.296 554.695C368.48 554.718 368.648 554.812 368.765 554.955C371.571 558.697 387.823 571.508 397.118 573.076C397.295 573.105 397.456 573.199 397.567 573.34C397.677 573.481 397.731 573.657 397.715 573.835C397.7 574.013 397.618 574.178 397.485 574.299C397.352 574.419 397.178 574.486 396.998 574.485Z" fill="#6022B6"/>
<path d="M378.877 565.292C378.731 565.292 378.589 565.248 378.469 565.165C378.349 565.083 378.257 564.967 378.206 564.832C378.155 564.696 378.146 564.549 378.182 564.409C378.218 564.269 378.296 564.143 378.406 564.048C378.637 563.848 401.599 543.861 401.599 531.245C401.599 514.926 343.009 495.628 328.506 491.726C328.413 491.703 328.326 491.663 328.249 491.606C328.171 491.55 328.107 491.479 328.058 491.397C328.009 491.316 327.977 491.225 327.964 491.131C327.952 491.037 327.958 490.942 327.983 490.85C328.008 490.759 328.052 490.673 328.111 490.599C328.17 490.524 328.243 490.462 328.327 490.416C328.411 490.37 328.503 490.341 328.599 490.331C328.694 490.321 328.79 490.33 328.882 490.357C329.624 490.557 403.032 511.21 403.032 531.245C403.032 544.503 380.315 564.281 379.348 565.116C379.218 565.23 379.051 565.292 378.877 565.292Z" fill="#6022B6"/>
<path d="M345.14 587.893C343.262 590.933 342.038 593.087 341.867 593.68C341.47 595.058 341.779 598.205 342.572 601.603C347.519 597.977 346.485 591.454 345.14 587.893Z" fill="url(#paint66_linear_1_1379)"/>
<path d="M344.877 610.356C346.311 609.647 360.617 607.122 363.12 609.805C364.138 610.895 363.598 627.691 360.89 628.952C358.526 630.053 351.347 622.139 349.615 619.708C347.883 617.277 344.877 610.356 344.877 610.356Z" fill="url(#paint67_linear_1_1379)"/>
<path d="M359.454 630.331C359.138 630.331 358.818 630.254 358.523 630.091C341.028 620.423 337.042 594.793 337.007 594.537C336.952 594.046 337.093 593.554 337.399 593.165C337.706 592.776 338.154 592.521 338.649 592.454C339.143 592.387 339.644 592.514 340.045 592.808C340.446 593.101 340.715 593.538 340.795 594.025C340.828 594.263 344.77 618.159 360.387 626.788C360.757 626.992 361.048 627.312 361.214 627.697C361.381 628.082 361.413 628.511 361.306 628.916C361.2 629.322 360.96 629.681 360.625 629.937C360.289 630.193 359.878 630.331 359.454 630.331Z" fill="url(#paint68_linear_1_1379)"/>
<path d="M468.286 450.513C450.355 432.812 425.173 413.511 397.935 412.971C362.165 412.262 326.314 433.537 317.392 437.319C286.164 455.442 258.521 476.4 257.055 497.342C266.437 506.863 278.59 513.336 294.766 512.806C347.666 511.073 364.236 465.213 401.679 464.898C416.612 464.773 431.448 470.32 444.564 476.977C449.715 473.111 461.408 459.938 468.286 450.513Z" fill="url(#paint69_linear_1_1379)"/>
<path d="M293.609 496.434C274.719 496.434 262.975 484.625 261.58 483.146C261.515 483.078 261.465 482.998 261.432 482.91C261.399 482.823 261.384 482.73 261.387 482.637C261.39 482.544 261.412 482.452 261.451 482.368C261.49 482.283 261.546 482.206 261.615 482.143C261.683 482.079 261.764 482.03 261.853 481.997C261.941 481.964 262.035 481.949 262.129 481.952C262.223 481.956 262.315 481.977 262.401 482.016C262.487 482.054 262.564 482.109 262.628 482.177C264.12 483.757 277.826 497.535 299.611 494.611C310.88 493.1 321.985 485.65 334.846 477.026C352.487 465.195 372.481 451.786 398.463 450.636C430.362 449.219 450.825 464.18 451.027 464.331C451.105 464.386 451.172 464.456 451.222 464.537C451.272 464.617 451.306 464.707 451.32 464.801C451.335 464.894 451.331 464.99 451.307 465.082C451.284 465.174 451.242 465.26 451.184 465.336C451.126 465.412 451.054 465.475 450.971 465.523C450.888 465.57 450.796 465.601 450.701 465.613C450.606 465.624 450.51 465.617 450.417 465.592C450.325 465.566 450.239 465.522 450.164 465.463C449.964 465.315 429.892 450.67 398.525 452.051C372.948 453.184 353.132 466.474 335.649 478.199C322.639 486.924 311.404 494.458 299.802 496.015C297.749 496.293 295.68 496.434 293.609 496.434Z" fill="#00E2EC"/>
<path d="M280.638 494.473C280.483 494.473 280.332 494.424 280.208 494.333C280.084 494.241 279.994 494.112 279.95 493.966C279.906 493.819 279.911 493.662 279.964 493.519C280.018 493.375 280.117 493.253 280.247 493.169C282.15 491.945 283.362 488.855 283.752 484.232C284.482 475.593 282.081 464.322 280.274 462.679C280.205 462.616 280.149 462.54 280.109 462.455C280.07 462.371 280.047 462.28 280.043 462.187C280.04 462.093 280.054 462.001 280.087 461.913C280.119 461.826 280.169 461.745 280.232 461.677C280.296 461.608 280.373 461.553 280.458 461.514C280.544 461.474 280.636 461.452 280.73 461.448C280.824 461.445 280.918 461.459 281.007 461.491C281.095 461.523 281.176 461.572 281.246 461.635C283.519 463.703 285.926 475.534 285.182 484.349C284.748 489.497 283.35 492.865 281.03 494.358C280.913 494.433 280.777 494.473 280.638 494.473Z" fill="#00E2EC"/>
<path d="M521.18 480.5C519.587 478.609 500.108 481.997 494.969 479.633C493.013 478.734 483.136 465.172 468.286 450.513C461.408 459.938 449.715 473.11 444.565 476.977C463.756 486.717 479.265 498.83 486.011 499.023C498.196 499.371 522.772 482.391 521.18 480.5Z" fill="url(#paint70_linear_1_1379)"/>
<path d="M440.102 475.503C439.944 475.503 439.79 475.451 439.664 475.356C439.538 475.26 439.448 475.126 439.408 474.974C439.368 474.823 439.379 474.662 439.441 474.518C439.502 474.373 439.611 474.253 439.749 474.176C442.968 472.377 459.326 456.467 463.187 446.015C463.219 445.928 463.269 445.848 463.332 445.779C463.396 445.711 463.473 445.655 463.558 445.616C463.644 445.577 463.736 445.555 463.83 445.551C463.924 445.547 464.018 445.562 464.107 445.594C464.195 445.626 464.276 445.675 464.345 445.738C464.415 445.801 464.471 445.877 464.51 445.961C464.55 446.046 464.572 446.137 464.576 446.23C464.58 446.323 464.565 446.416 464.533 446.503C460.487 457.458 443.873 473.501 440.454 475.412C440.347 475.471 440.226 475.503 440.102 475.503Z" fill="#00E2EC"/>
<path d="M401.52 426.76C410.668 426.653 417.208 421.025 420.433 417.472C413.177 414.779 405.638 413.123 397.935 412.971C391.483 412.844 385.03 413.438 378.731 414.51C382.157 419.774 390.259 426.893 401.52 426.76Z" fill="url(#paint71_linear_1_1379)"/>
<path d="M487.719 493.107C483.586 492.927 480.683 495.096 479.522 496.931C482.163 498.207 484.353 498.976 486.01 499.024C488.456 499.093 491.403 498.457 494.535 497.393C493.553 495.613 491.547 493.275 487.719 493.107Z" fill="url(#paint72_linear_1_1379)"/>
<path d="M511.221 475.024C509.167 475.667 505.389 487.029 511.651 495.683C513.429 493.99 519.951 487.516 521.881 485.316C523.811 483.116 530.46 474.078 530.933 473.294C531.405 472.51 519.527 472.423 511.221 475.024Z" fill="url(#paint73_linear_1_1379)"/>
<path d="M496.883 510.364C496.477 510.365 496.082 510.238 495.754 510.002C495.425 509.766 495.182 509.433 495.058 509.051C494.934 508.669 494.936 508.258 495.064 507.877C495.192 507.496 495.439 507.166 495.77 506.933C497.604 505.638 520.954 486.544 528.443 473.611C528.565 473.39 528.73 473.195 528.929 473.038C529.128 472.881 529.357 472.765 529.601 472.697C529.846 472.628 530.103 472.609 530.355 472.64C530.608 472.67 530.851 472.751 531.072 472.876C531.293 473.001 531.486 473.168 531.641 473.368C531.795 473.568 531.908 473.797 531.972 474.04C532.036 474.284 532.05 474.537 532.014 474.786C531.978 475.036 531.892 475.275 531.761 475.491C523.816 489.21 499.965 508.617 497.992 510.012C497.668 510.241 497.281 510.364 496.883 510.364Z" fill="url(#paint74_linear_1_1379)"/>
<path d="M334.925 559.653L335.004 559.626C335.308 559.497 335.549 559.256 335.678 558.955C335.806 558.653 335.811 558.314 335.692 558.009C335.573 557.704 335.339 557.456 335.04 557.317C334.74 557.179 334.398 557.161 334.085 557.267C331.132 558.384 327.913 559.41 323.65 560.593C320.466 561.451 317.067 562.229 312.946 563.046C306.228 564.38 299.102 565.33 291.16 565.946C285.615 566.351 280.057 566.555 274.496 566.559C265.215 566.559 256.097 565.963 247.396 564.79C239.542 563.725 232.629 562.271 226.262 560.341C222.489 559.193 219.287 557.96 216.474 556.571C214.853 555.768 213.392 554.923 212.132 554.057C211.8 553.829 211.475 553.594 211.154 553.351L210.717 553.009L210.228 552.61C209.584 552.079 208.957 551.527 208.351 550.954C205.788 548.528 203.913 545.969 202.779 543.345C201.589 540.635 201.163 537.658 201.546 534.728C201.901 531.932 203.033 529.014 204.819 526.291C205.66 524.992 206.634 523.782 207.724 522.68C208.633 521.763 209.969 520.654 210.903 520.249L210.998 520.207C211.483 519.984 211.918 519.668 212.279 519.277C212.64 518.887 212.918 518.429 213.099 517.931C213.282 517.434 213.364 516.906 213.34 516.377C213.315 515.849 213.185 515.331 212.957 514.852C212.626 514.16 212.104 513.575 211.451 513.165C210.798 512.755 210.041 512.536 209.267 512.534C208.67 512.534 208.09 512.662 207.543 512.916C204.998 514.096 203.418 515.536 201.891 517.032C200.411 518.533 199.092 520.181 197.955 521.951C195.552 525.707 194.099 529.703 193.642 533.825C193.398 535.991 193.462 538.181 193.832 540.33C194.212 542.464 194.884 544.538 195.827 546.493C197.499 549.978 200.06 553.256 203.439 556.239C204.188 556.899 204.96 557.533 205.754 558.14L206.356 558.587L207.019 559.053C207.44 559.339 207.867 559.613 208.306 559.882C209.911 560.864 211.656 561.758 213.64 562.617C216.903 564.02 220.392 565.164 224.62 566.22C231.104 567.807 238.187 568.845 246.909 569.487C251.633 569.832 256.556 570 261.955 570C264.286 570 266.661 569.97 269.215 569.905C276.14 569.751 283.395 569.256 291.393 568.393C307.711 566.607 321.952 563.75 334.925 559.653Z" fill="url(#paint75_linear_1_1379)"/>
<path d="M378.927 647.667C384.805 645.756 389.958 643.424 394.681 640.534C400.443 636.958 404.704 632.889 407.703 628.099C411.247 622.451 412.818 615.401 411.905 609.24C411.644 607.579 411.207 605.949 410.6 604.378C409.979 602.732 409.17 601.162 408.189 599.697C407.051 598.034 405.794 596.664 404.357 595.521C403.549 594.878 402.678 594.315 401.758 593.84C401.014 593.457 400.237 593.141 399.435 592.897L399.182 592.821L399.073 592.793L398.835 592.735C398.414 592.632 397.982 592.581 397.548 592.581C395.26 592.581 393.208 594 392.439 596.111C391.956 597.445 392.027 598.914 392.637 600.196C393.247 601.477 394.347 602.468 395.694 602.949L395.941 603.037C396.064 603.08 396.222 603.136 396.37 603.272C396.448 603.315 396.522 603.361 396.599 603.412C396.858 603.565 397.1 603.757 397.355 603.96L397.366 603.969L397.408 604.003C398.052 604.554 398.626 605.18 399.118 605.868C400.156 607.244 401.075 609.143 401.763 611.339C402.522 613.662 402.889 615.837 402.851 617.792C402.825 618.376 402.792 618.927 402.689 619.488C402.644 619.745 402.594 620.013 402.535 620.277L402.449 620.638L402.443 620.665L402.435 620.69L402.294 621.16C401.961 622.269 401.536 623.348 401.023 624.388C399.095 628.352 395.721 632.249 391.266 635.653C387.518 638.55 382.964 641.102 377.35 643.449C367.997 647.26 357.27 649.757 345.457 650.874C340.893 651.295 336.239 651.51 331.62 651.51C325.214 651.51 318.734 651.099 312.36 650.293C312.238 650.277 312.115 650.285 311.997 650.317C311.879 650.348 311.768 650.403 311.672 650.477C311.575 650.551 311.494 650.644 311.434 650.749C311.374 650.854 311.335 650.97 311.32 651.091C311.305 651.21 311.314 651.331 311.346 651.448C311.379 651.564 311.434 651.672 311.509 651.767C311.584 651.862 311.677 651.942 311.783 652.001C311.89 652.06 312.006 652.098 312.127 652.112C320.622 653.138 328.873 653.659 336.647 653.659C339.676 653.659 342.703 653.58 345.644 653.425C351.725 653.103 357.209 652.52 362.41 651.645C368.24 650.691 373.795 649.353 378.927 647.667Z" fill="url(#paint76_linear_1_1379)"/>
<path d="M427.933 616.77C427.816 616.77 427.703 616.814 427.617 616.893C427.531 616.972 427.477 617.08 427.468 617.196C427.32 619.008 426.983 620.801 426.462 622.544C425.992 624.102 425.329 625.718 424.436 627.484C422.948 630.386 420.83 633.254 418.136 636.009C415.615 638.559 412.842 640.726 409.889 642.453C408.399 643.319 406.856 644.046 405.409 644.703C404.599 645.061 403.815 645.384 403.22 645.625L402.151 646.036L401.706 646.211C401.586 646.264 401.464 646.309 401.339 646.347L401.021 646.453C400.417 646.659 399.895 647.049 399.529 647.568C399.164 648.086 398.974 648.706 398.987 649.338C399.003 650.111 399.325 650.846 399.885 651.386C400.444 651.926 401.196 652.226 401.978 652.222L402.059 652.221L402.416 652.211C402.514 652.211 402.608 652.206 402.725 652.19L402.732 652.189L402.787 652.183C403.076 652.149 403.349 652.116 403.593 652.074C404.122 651.988 404.647 651.876 405.165 651.737C406.182 651.466 407.174 651.111 408.131 650.677C409.791 649.946 411.405 648.966 413.367 647.498C416.57 645.088 419.406 642.234 421.788 639.024C424.189 635.8 426.025 632.296 427.249 628.61C428.509 624.756 428.909 620.799 428.402 617.173C428.387 617.068 428.336 616.972 428.259 616.899C428.181 616.827 428.081 616.782 427.975 616.774L427.954 616.304L427.934 616.299V616.77H427.933Z" fill="url(#paint77_linear_1_1379)"/>
<path d="M557.707 488.408C556.776 488.411 555.884 488.776 555.222 489.424C554.561 490.073 554.185 490.953 554.175 491.874C554.157 494.051 553.76 496.581 552.961 499.61C552.256 502.249 551.352 504.832 550.256 507.337C547.999 512.503 545.167 517.327 541.839 521.68C538.411 526.154 534.498 530.243 530.169 533.873C525.475 537.836 520.579 540.872 515.62 542.894C515.604 542.899 515.58 542.912 515.559 542.922C515.493 542.958 515.435 543.007 515.388 543.065C515.341 543.124 515.306 543.191 515.286 543.263C515.265 543.335 515.259 543.41 515.268 543.484C515.277 543.559 515.301 543.63 515.338 543.695C515.412 543.827 515.536 543.924 515.683 543.964C515.829 544.005 515.987 543.987 516.12 543.914C521.533 540.918 526.392 538.179 531.033 534.98C535.817 531.673 540.219 527.856 544.161 523.599C548.34 519.061 551.857 514.314 554.61 509.492C556.228 506.64 557.518 504.021 558.552 501.486C559.91 498.109 560.719 495.373 561.171 492.619L561.202 492.439C561.279 491.943 561.247 491.436 561.108 490.954C560.97 490.471 560.728 490.023 560.4 489.641C560.071 489.259 559.663 488.951 559.204 488.739C558.745 488.526 558.244 488.413 557.737 488.409L557.722 487.938L557.706 487.936V488.408H557.707Z" fill="url(#paint78_linear_1_1379)"/>
<path d="M189.342 399.913L189.394 399.882C189.572 399.768 189.707 399.601 189.781 399.404C189.855 399.208 189.862 398.994 189.803 398.793C189.743 398.592 189.619 398.416 189.45 398.29C189.281 398.165 189.075 398.096 188.864 398.096C188.676 398.096 188.493 398.15 188.334 398.251C185.944 399.774 183.454 401.22 181.045 402.618C180.208 403.104 179.37 403.59 178.532 404.082C174.666 406.315 171.605 408.292 168.892 410.307C165.765 412.693 162.738 415.134 160.193 418.644C158.74 420.694 157.784 422.72 157.278 424.827C156.598 427.523 156.914 430.435 157.163 431.931L157.217 432.266C157.266 432.549 157.349 432.837 157.462 433.117C157.776 433.902 158.323 434.576 159.03 435.049C159.737 435.523 160.572 435.775 161.426 435.772C162.123 435.771 162.809 435.601 163.424 435.277C164.039 434.953 164.565 434.485 164.956 433.914C165.346 433.343 165.59 432.686 165.665 432.001C165.74 431.315 165.644 430.622 165.386 429.982C164.828 428.602 164.481 427.466 164.475 426.067C164.463 424.79 164.828 423.327 165.531 421.84C166.757 419.235 168.844 416.438 171.734 413.523C174.03 411.192 176.73 408.793 179.984 406.192C183.238 403.644 186.296 401.592 189.342 399.913Z" fill="url(#paint79_linear_1_1379)"/>
<path d="M581.897 484.568C581.55 484.154 581.165 483.96 580.687 483.96C580.576 483.96 580.458 483.971 580.338 483.992C578.395 484.329 578.286 486.365 578.507 490.608C578.595 492.303 578.687 494.056 578.493 495.698C578.165 498.485 576.784 500.638 575.776 502.208C575.227 503.064 574.546 504.126 574.745 504.367L574.752 504.366C574.764 504.366 574.79 504.37 574.831 504.37C576.522 504.37 581.49 500.033 582.579 494.349C583.429 489.918 583.161 486.078 581.897 484.568Z" fill="url(#paint80_linear_1_1379)"/>
<path d="M463.04 516.615C462.413 515.754 461.589 515.335 460.521 515.335C460.342 515.335 460.153 515.349 459.961 515.372C456.985 515.747 457.139 519.113 457.634 524.573C457.845 526.881 458.062 529.267 457.886 531.46C457.589 535.144 455.865 538.064 454.604 540.196C453.543 541.992 452.915 543.116 453.399 543.56C453.436 543.596 453.479 543.623 453.527 543.641C453.575 543.659 453.625 543.666 453.676 543.663C455.456 543.663 459.921 538.402 462.594 530.472C464.651 524.37 464.822 519.06 463.04 516.615Z" fill="url(#paint81_linear_1_1379)"/>
<path d="M180.369 385.226C180.37 384.42 180.145 383.788 179.697 383.342C179.099 382.75 178.07 382.437 176.72 382.437C173.564 382.437 169.17 384.114 164.966 386.925C159.621 390.499 155.945 393.77 154.236 395.684L154.439 395.565C156.725 394.221 160.178 392.19 164.425 391.077C166.844 390.443 169.323 390.094 171.508 389.786C177.16 388.989 180.359 388.385 180.369 385.226Z" fill="url(#paint82_linear_1_1379)"/>
<path d="M251.723 544.124C250.941 543.119 248.934 542.427 246.352 542.274C245.95 542.251 245.469 542.239 244.926 542.225C241.268 542.135 235.143 541.986 230.721 538.14C225.181 533.323 224.675 528.198 224.432 525.735C224.417 525.583 224.401 525.418 224.384 525.263C224.265 525.394 224.166 525.541 224.09 525.7C222.857 528.134 223.627 535.185 227.218 539.938C230.166 543.837 236.147 547.901 242.865 548.188C243.671 548.222 244.386 548.239 245.051 548.239C250.742 548.239 251.778 546.919 252.041 545.628C252.161 545.035 252.061 544.557 251.723 544.124Z" fill="url(#paint83_linear_1_1379)"/>
<defs>
<linearGradient id="paint0_linear_1_1379" x1="364.753" y1="761.447" x2="364.753" y2="72.9487" gradientUnits="userSpaceOnUse">
<stop stop-color="#C7A0F6"/>
<stop offset="1" stop-color="#8CE6FD"/>
</linearGradient>
<linearGradient id="paint1_linear_1_1379" x1="74.6463" y1="311.206" x2="146.746" y2="311.206" gradientUnits="userSpaceOnUse">
<stop stop-color="#B0E1FF"/>
<stop offset="1" stop-color="white"/>
</linearGradient>
<linearGradient id="paint2_linear_1_1379" x1="85.0659" y1="320.591" x2="139.337" y2="320.591" gradientUnits="userSpaceOnUse">
<stop stop-color="#00E2EC"/>
<stop offset="1" stop-color="#0090B2"/>
</linearGradient>
<linearGradient id="paint3_linear_1_1379" x1="329.838" y1="714.876" x2="329.838" y2="583.89" gradientUnits="userSpaceOnUse">
<stop stop-color="#6B49C0"/>
<stop offset="1" stop-color="#5E7ED9"/>
</linearGradient>
<linearGradient id="paint4_linear_1_1379" x1="387.18" y1="159.282" x2="393.234" y2="159.282" gradientUnits="userSpaceOnUse">
<stop stop-color="white"/>
<stop offset="1" stop-color="#B0E1FF"/>
</linearGradient>
<linearGradient id="paint5_linear_1_1379" x1="380.409" y1="100.702" x2="485.721" y2="100.702" gradientUnits="userSpaceOnUse">
<stop stop-color="white"/>
<stop offset="1" stop-color="#B0E1FF"/>
</linearGradient>
<linearGradient id="paint6_linear_1_1379" x1="380.409" y1="168.939" x2="499.621" y2="168.939" gradientUnits="userSpaceOnUse">
<stop stop-color="white"/>
<stop offset="1" stop-color="#B0E1FF"/>
</linearGradient>
<linearGradient id="paint7_linear_1_1379" x1="380.409" y1="245.924" x2="498.157" y2="245.924" gradientUnits="userSpaceOnUse">
<stop stop-color="white"/>
<stop offset="1" stop-color="#B0E1FF"/>
</linearGradient>
<linearGradient id="paint8_linear_1_1379" x1="74.6453" y1="311.206" x2="139.337" y2="311.206" gradientUnits="userSpaceOnUse">
<stop stop-color="#8C6AE2"/>
<stop offset="1" stop-color="#5A55F8"/>
</linearGradient>
<linearGradient id="paint9_linear_1_1379" x1="105.479" y1="325.271" x2="125.874" y2="325.271" gradientUnits="userSpaceOnUse">
<stop stop-color="#C07EB0"/>
<stop offset="1" stop-color="#EE5C95"/>
</linearGradient>
<linearGradient id="paint10_linear_1_1379" x1="114.81" y1="686.782" x2="195.826" y2="686.782" gradientUnits="userSpaceOnUse">
<stop stop-color="#C07EB0"/>
<stop offset="1" stop-color="#EE5C95"/>
</linearGradient>
<linearGradient id="paint11_linear_1_1379" x1="136.229" y1="629.895" x2="173.582" y2="667.662" gradientUnits="userSpaceOnUse">
<stop stop-color="#8173CC"/>
<stop offset="1" stop-color="#271068"/>
</linearGradient>
<linearGradient id="paint12_linear_1_1379" x1="137.544" y1="479.973" x2="156.959" y2="479.973" gradientUnits="userSpaceOnUse">
<stop stop-color="#FDE1A7"/>
<stop offset="1" stop-color="#F9A144"/>
</linearGradient>
<linearGradient id="paint13_linear_1_1379" x1="156.219" y1="615.956" x2="256.659" y2="615.956" gradientUnits="userSpaceOnUse">
<stop stop-color="#00E2EC"/>
<stop offset="1" stop-color="#0090B2"/>
</linearGradient>
<linearGradient id="paint14_linear_1_1379" x1="168.494" y1="630.905" x2="200.515" y2="630.905" gradientUnits="userSpaceOnUse">
<stop stop-color="#FDE1A7"/>
<stop offset="1" stop-color="#F9A144"/>
</linearGradient>
<linearGradient id="paint15_linear_1_1379" x1="98.315" y1="589.059" x2="144.039" y2="589.059" gradientUnits="userSpaceOnUse">
<stop stop-color="#5A55F8"/>
<stop offset="0.31" stop-color="#6E5EEF"/>
<stop offset="0.729" stop-color="#8467E5"/>
<stop offset="1" stop-color="#8C6AE2"/>
</linearGradient>
<linearGradient id="paint16_linear_1_1379" x1="145.32" y1="562.201" x2="192.216" y2="562.201" gradientUnits="userSpaceOnUse">
<stop stop-color="#5A55F8"/>
<stop offset="1" stop-color="#8C6AE2"/>
</linearGradient>
<linearGradient id="paint17_linear_1_1379" x1="110.171" y1="574.59" x2="190.508" y2="574.59" gradientUnits="userSpaceOnUse">
<stop stop-color="#FF57BD"/>
<stop offset="1" stop-color="#FE6A77"/>
</linearGradient>
<linearGradient id="paint18_linear_1_1379" x1="204.638" y1="618.052" x2="224.378" y2="618.052" gradientUnits="userSpaceOnUse">
<stop stop-color="#00E2EC"/>
<stop offset="1" stop-color="#0090B2"/>
</linearGradient>
<linearGradient id="paint19_linear_1_1379" x1="494.048" y1="419.59" x2="494.048" y2="390.987" gradientUnits="userSpaceOnUse">
<stop stop-color="white"/>
<stop offset="1" stop-color="#E9B6F2"/>
</linearGradient>
<linearGradient id="paint20_linear_1_1379" x1="398.014" y1="337.563" x2="584.434" y2="337.563" gradientUnits="userSpaceOnUse">
<stop stop-color="white"/>
<stop offset="1" stop-color="#F1D1F8"/>
</linearGradient>
<linearGradient id="paint21_linear_1_1379" x1="405.344" y1="335.357" x2="574.238" y2="335.357" gradientUnits="userSpaceOnUse">
<stop stop-color="#00E2EC"/>
<stop offset="1" stop-color="#0090B2"/>
</linearGradient>
<linearGradient id="paint22_linear_1_1379" x1="462.188" y1="306.369" x2="564.482" y2="306.369" gradientUnits="userSpaceOnUse">
<stop stop-color="#FDE1A7"/>
<stop offset="1" stop-color="#F9A144"/>
</linearGradient>
<linearGradient id="paint23_linear_1_1379" x1="396.588" y1="335.288" x2="524.685" y2="335.288" gradientUnits="userSpaceOnUse">
<stop stop-color="#7523AF"/>
<stop offset="0.123" stop-color="#6D2EB2"/>
<stop offset="0.34" stop-color="#594CBA"/>
<stop offset="0.625" stop-color="#387CC7"/>
<stop offset="0.964" stop-color="#0ABED8"/>
<stop offset="1" stop-color="#05C5DA"/>
</linearGradient>
<linearGradient id="paint24_linear_1_1379" x1="515.027" y1="354.268" x2="515.027" y2="305.114" gradientUnits="userSpaceOnUse">
<stop stop-color="#170389"/>
<stop offset="0.422" stop-color="#3B0E9F"/>
<stop offset="0.777" stop-color="#5215AD"/>
<stop offset="1" stop-color="#5A18B2"/>
</linearGradient>
<linearGradient id="paint25_linear_1_1379" x1="379.84" y1="312.761" x2="409.244" y2="312.761" gradientUnits="userSpaceOnUse">
<stop stop-color="#170389"/>
<stop offset="0.077" stop-color="#1C058C"/>
<stop offset="1" stop-color="#5A18B2"/>
</linearGradient>
<linearGradient id="paint26_linear_1_1379" x1="447.63" y1="347.334" x2="488.052" y2="347.334" gradientUnits="userSpaceOnUse">
<stop stop-color="#170389"/>
<stop offset="0.077" stop-color="#1C058C"/>
<stop offset="1" stop-color="#5A18B2"/>
</linearGradient>
<linearGradient id="paint27_linear_1_1379" x1="373.311" y1="318.792" x2="395.546" y2="318.792" gradientUnits="userSpaceOnUse">
<stop stop-color="#170389"/>
<stop offset="0.077" stop-color="#1C058C"/>
<stop offset="1" stop-color="#5A18B2"/>
</linearGradient>
<linearGradient id="paint28_linear_1_1379" x1="382.399" y1="318.652" x2="395.546" y2="318.652" gradientUnits="userSpaceOnUse">
<stop stop-color="#F6E2FB"/>
<stop offset="1" stop-color="#FF9BBB"/>
</linearGradient>
<linearGradient id="paint29_linear_1_1379" x1="387.364" y1="290.248" x2="400.346" y2="290.248" gradientUnits="userSpaceOnUse">
<stop stop-color="#F6E2FB"/>
<stop offset="1" stop-color="#FF9BBB"/>
</linearGradient>
<linearGradient id="paint30_linear_1_1379" x1="383.356" y1="333.563" x2="424.685" y2="333.563" gradientUnits="userSpaceOnUse">
<stop stop-color="#FF9BBB"/>
<stop offset="1" stop-color="#F6E2FB"/>
</linearGradient>
<linearGradient id="paint31_linear_1_1379" x1="518.004" y1="336.742" x2="544.3" y2="363.328" gradientUnits="userSpaceOnUse">
<stop stop-color="#FDE1A7"/>
<stop offset="1" stop-color="#F9A144"/>
</linearGradient>
<linearGradient id="paint32_linear_1_1379" x1="516.888" y1="350.509" x2="543.396" y2="350.509" gradientUnits="userSpaceOnUse">
<stop stop-color="#C91C91"/>
<stop offset="1" stop-color="#FE6A77"/>
</linearGradient>
<linearGradient id="paint33_linear_1_1379" x1="605.467" y1="399.55" x2="628.57" y2="399.55" gradientUnits="userSpaceOnUse">
<stop stop-color="#FF57BD"/>
<stop offset="1" stop-color="#FE6A77"/>
</linearGradient>
<linearGradient id="paint34_linear_1_1379" x1="577.106" y1="401.837" x2="617.776" y2="401.837" gradientUnits="userSpaceOnUse">
<stop stop-color="#C07EB0"/>
<stop offset="1" stop-color="#EE5C95"/>
</linearGradient>
<linearGradient id="paint35_linear_1_1379" x1="589.211" y1="372.542" x2="605.536" y2="389.047" gradientUnits="userSpaceOnUse">
<stop stop-color="#994574"/>
<stop offset="1" stop-color="#43256F"/>
</linearGradient>
<linearGradient id="paint36_linear_1_1379" x1="590.169" y1="357.982" x2="623.715" y2="357.982" gradientUnits="userSpaceOnUse">
<stop stop-color="white"/>
<stop offset="1" stop-color="#FDE1A7"/>
</linearGradient>
<linearGradient id="paint37_linear_1_1379" x1="568.276" y1="342.438" x2="585.32" y2="342.438" gradientUnits="userSpaceOnUse">
<stop stop-color="white"/>
<stop offset="1" stop-color="#FDE1A7"/>
</linearGradient>
<linearGradient id="paint38_linear_1_1379" x1="562.87" y1="361.374" x2="576.907" y2="361.374" gradientUnits="userSpaceOnUse">
<stop stop-color="white"/>
<stop offset="1" stop-color="#FDE1A7"/>
</linearGradient>
<linearGradient id="paint39_linear_1_1379" x1="593.599" y1="451.188" x2="593.599" y2="425.816" gradientUnits="userSpaceOnUse">
<stop stop-color="#FFE2A8"/>
<stop offset="1" stop-color="#A482FF"/>
</linearGradient>
<linearGradient id="paint40_linear_1_1379" x1="422.831" y1="425.713" x2="680.991" y2="425.713" gradientUnits="userSpaceOnUse">
<stop stop-color="#F9A144"/>
<stop offset="1" stop-color="#FDE1A7"/>
</linearGradient>
<linearGradient id="paint41_linear_1_1379" x1="311.417" y1="623.611" x2="311.417" y2="537.903" gradientUnits="userSpaceOnUse">
<stop stop-color="#8173CC"/>
<stop offset="1" stop-color="#271068"/>
</linearGradient>
<linearGradient id="paint42_linear_1_1379" x1="178.316" y1="440.531" x2="260.932" y2="440.531" gradientUnits="userSpaceOnUse">
<stop stop-color="#994574"/>
<stop offset="1" stop-color="#43256F"/>
</linearGradient>
<linearGradient id="paint43_linear_1_1379" x1="178.008" y1="452.313" x2="238.019" y2="452.313" gradientUnits="userSpaceOnUse">
<stop stop-color="#8173CC"/>
<stop offset="1" stop-color="#271068"/>
</linearGradient>
<linearGradient id="paint44_linear_1_1379" x1="252.852" y1="519.45" x2="366.639" y2="519.45" gradientUnits="userSpaceOnUse">
<stop stop-color="#994574"/>
<stop offset="1" stop-color="#43256F"/>
</linearGradient>
<linearGradient id="paint45_linear_1_1379" x1="252.861" y1="528.37" x2="366.638" y2="528.37" gradientUnits="userSpaceOnUse">
<stop stop-color="#8173CC"/>
<stop offset="1" stop-color="#271068"/>
</linearGradient>
<linearGradient id="paint46_linear_1_1379" x1="231.931" y1="646.668" x2="349.584" y2="646.668" gradientUnits="userSpaceOnUse">
<stop stop-color="#271068"/>
<stop offset="1" stop-color="#8173CC"/>
</linearGradient>
<linearGradient id="paint47_linear_1_1379" x1="231.034" y1="674.496" x2="255.252" y2="674.496" gradientUnits="userSpaceOnUse">
<stop stop-color="#994574"/>
<stop offset="1" stop-color="#43256F"/>
</linearGradient>
<linearGradient id="paint48_linear_1_1379" x1="337.913" y1="636.027" x2="357.206" y2="636.027" gradientUnits="userSpaceOnUse">
<stop stop-color="#994574"/>
<stop offset="1" stop-color="#43256F"/>
</linearGradient>
<linearGradient id="paint49_linear_1_1379" x1="265.887" y1="366.217" x2="265.887" y2="315.539" gradientUnits="userSpaceOnUse">
<stop stop-color="#E8878E"/>
<stop offset="0.219" stop-color="#E58589"/>
<stop offset="0.469" stop-color="#DE7F7B"/>
<stop offset="0.735" stop-color="#D27565"/>
<stop offset="1" stop-color="#C16846"/>
</linearGradient>
<linearGradient id="paint50_linear_1_1379" x1="229.755" y1="294.949" x2="293.451" y2="294.949" gradientUnits="userSpaceOnUse">
<stop stop-color="#E8878E"/>
<stop offset="1" stop-color="#F4BEA3"/>
</linearGradient>
<linearGradient id="paint51_linear_1_1379" x1="207.903" y1="276.157" x2="286.586" y2="276.157" gradientUnits="userSpaceOnUse">
<stop stop-color="#994574"/>
<stop offset="1" stop-color="#43256F"/>
</linearGradient>
<linearGradient id="paint52_linear_1_1379" x1="252.632" y1="218.76" x2="252.632" y2="167.734" gradientUnits="userSpaceOnUse">
<stop stop-color="#FDE1A7"/>
<stop offset="1" stop-color="white"/>
</linearGradient>
<linearGradient id="paint53_linear_1_1379" x1="227.274" y1="222.949" x2="227.274" y2="188.966" gradientUnits="userSpaceOnUse">
<stop stop-color="#FDE1A7"/>
<stop offset="1" stop-color="white"/>
</linearGradient>
<linearGradient id="paint54_linear_1_1379" x1="275.599" y1="215.842" x2="275.599" y2="177.96" gradientUnits="userSpaceOnUse">
<stop stop-color="#FDE1A7"/>
<stop offset="1" stop-color="white"/>
</linearGradient>
<linearGradient id="paint55_linear_1_1379" x1="288.475" y1="218.949" x2="288.475" y2="202.249" gradientUnits="userSpaceOnUse">
<stop stop-color="#FDE1A7"/>
<stop offset="1" stop-color="white"/>
</linearGradient>
<linearGradient id="paint56_linear_1_1379" x1="242.191" y1="289.812" x2="288.557" y2="289.812" gradientUnits="userSpaceOnUse">
<stop stop-color="#5A55F8"/>
<stop offset="1" stop-color="#8C6AE2"/>
</linearGradient>
<linearGradient id="paint57_linear_1_1379" x1="270.485" y1="291.365" x2="287.293" y2="291.365" gradientUnits="userSpaceOnUse">
<stop stop-color="#FF57BD"/>
<stop offset="1" stop-color="#FE6A77"/>
</linearGradient>
<linearGradient id="paint58_linear_1_1379" x1="173.421" y1="218.756" x2="205.04" y2="218.756" gradientUnits="userSpaceOnUse">
<stop stop-color="#E8878E"/>
<stop offset="1" stop-color="#F4BEA3"/>
</linearGradient>
<linearGradient id="paint59_linear_1_1379" x1="313.229" y1="212.865" x2="345.485" y2="212.865" gradientUnits="userSpaceOnUse">
<stop stop-color="#E8878E"/>
<stop offset="1" stop-color="#F4BEA3"/>
</linearGradient>
<linearGradient id="paint60_linear_1_1379" x1="173.891" y1="371.837" x2="349.3" y2="371.837" gradientUnits="userSpaceOnUse">
<stop stop-color="#FE6A77"/>
<stop offset="1" stop-color="#C91C91"/>
</linearGradient>
<linearGradient id="paint61_linear_1_1379" x1="341.188" y1="314.761" x2="349.299" y2="314.761" gradientUnits="userSpaceOnUse">
<stop stop-color="#F9A144"/>
<stop offset="1" stop-color="#FDE1A7"/>
</linearGradient>
<linearGradient id="paint62_linear_1_1379" x1="181.002" y1="315.732" x2="190.544" y2="314.031" gradientUnits="userSpaceOnUse">
<stop stop-color="#FDE1A7"/>
<stop offset="1" stop-color="#F9A144"/>
</linearGradient>
<linearGradient id="paint63_linear_1_1379" x1="313.497" y1="523.491" x2="438.147" y2="523.491" gradientUnits="userSpaceOnUse">
<stop stop-color="#00E2EC"/>
<stop offset="0.3" stop-color="#20B5DF"/>
<stop offset="1" stop-color="#6A4EC2"/>
</linearGradient>
<linearGradient id="paint64_linear_1_1379" x1="424.676" y1="527.411" x2="438.147" y2="527.411" gradientUnits="userSpaceOnUse">
<stop stop-color="#5A18B2"/>
<stop offset="1" stop-color="#7A50C9"/>
</linearGradient>
<linearGradient id="paint65_linear_1_1379" x1="341.695" y1="593.138" x2="391.556" y2="593.138" gradientUnits="userSpaceOnUse">
<stop stop-color="#E8878E"/>
<stop offset="0.219" stop-color="#E58589"/>
<stop offset="0.469" stop-color="#DE7F7B"/>
<stop offset="0.735" stop-color="#D27565"/>
<stop offset="1" stop-color="#C16846"/>
</linearGradient>
<linearGradient id="paint66_linear_1_1379" x1="341.694" y1="594.748" x2="346.252" y2="594.748" gradientUnits="userSpaceOnUse">
<stop stop-color="#F4BEA3"/>
<stop offset="1" stop-color="#E8878E"/>
</linearGradient>
<linearGradient id="paint67_linear_1_1379" x1="344.877" y1="618.827" x2="363.6" y2="618.827" gradientUnits="userSpaceOnUse">
<stop stop-color="#FE6A77"/>
<stop offset="1" stop-color="#C91C91"/>
</linearGradient>
<linearGradient id="paint68_linear_1_1379" x1="336.99" y1="611.361" x2="361.369" y2="611.361" gradientUnits="userSpaceOnUse">
<stop stop-color="#994574"/>
<stop offset="1" stop-color="#43256F"/>
</linearGradient>
<linearGradient id="paint69_linear_1_1379" x1="257.055" y1="462.896" x2="468.286" y2="462.896" gradientUnits="userSpaceOnUse">
<stop stop-color="#05C5DA"/>
<stop offset="0.036" stop-color="#0ABED8"/>
<stop offset="0.375" stop-color="#387CC7"/>
<stop offset="0.66" stop-color="#594CBA"/>
<stop offset="0.877" stop-color="#6D2EB2"/>
<stop offset="1" stop-color="#7523AF"/>
</linearGradient>
<linearGradient id="paint70_linear_1_1379" x1="444.564" y1="474.77" x2="521.253" y2="474.77" gradientUnits="userSpaceOnUse">
<stop stop-color="#E8878E"/>
<stop offset="0.219" stop-color="#E58589"/>
<stop offset="0.469" stop-color="#DE7F7B"/>
<stop offset="0.735" stop-color="#D27565"/>
<stop offset="1" stop-color="#C16846"/>
</linearGradient>
<linearGradient id="paint71_linear_1_1379" x1="399.582" y1="426.762" x2="399.582" y2="412.954" gradientUnits="userSpaceOnUse">
<stop stop-color="#170389"/>
<stop offset="0.077" stop-color="#1C058C"/>
<stop offset="1" stop-color="#5A18B2"/>
</linearGradient>
<linearGradient id="paint72_linear_1_1379" x1="486.305" y1="493.101" x2="487.352" y2="499.106" gradientUnits="userSpaceOnUse">
<stop stop-color="#E8878E"/>
<stop offset="1" stop-color="#F4BEA3"/>
</linearGradient>
<linearGradient id="paint73_linear_1_1379" x1="508.202" y1="484.246" x2="530.947" y2="484.246" gradientUnits="userSpaceOnUse">
<stop stop-color="#FE6A77"/>
<stop offset="1" stop-color="#C91C91"/>
</linearGradient>
<linearGradient id="paint74_linear_1_1379" x1="494.969" y1="491.512" x2="532.014" y2="491.512" gradientUnits="userSpaceOnUse">
<stop stop-color="#43256F"/>
<stop offset="1" stop-color="#994574"/>
</linearGradient>
<linearGradient id="paint75_linear_1_1379" x1="226.885" y1="579.514" x2="291.548" y2="514.136" gradientUnits="userSpaceOnUse">
<stop stop-color="white"/>
<stop offset="1" stop-color="#FDE1A7"/>
</linearGradient>
<linearGradient id="paint76_linear_1_1379" x1="348.397" y1="614.145" x2="385.335" y2="651.491" gradientUnits="userSpaceOnUse">
<stop stop-color="#FDE1A7"/>
<stop offset="1" stop-color="white"/>
</linearGradient>
<linearGradient id="paint77_linear_1_1379" x1="398.987" y1="634.259" x2="428.614" y2="634.259" gradientUnits="userSpaceOnUse">
<stop stop-color="white"/>
<stop offset="1" stop-color="#FDE1A7"/>
</linearGradient>
<linearGradient id="paint78_linear_1_1379" x1="515.265" y1="515.961" x2="561.243" y2="515.961" gradientUnits="userSpaceOnUse">
<stop stop-color="white"/>
<stop offset="1" stop-color="#FDE1A7"/>
</linearGradient>
<linearGradient id="paint79_linear_1_1379" x1="156.865" y1="416.933" x2="189.845" y2="416.933" gradientUnits="userSpaceOnUse">
<stop stop-color="white"/>
<stop offset="0.453" stop-color="#FEEFD0"/>
<stop offset="0.802" stop-color="#FDE5B2"/>
<stop offset="1" stop-color="#FDE1A7"/>
</linearGradient>
<linearGradient id="paint80_linear_1_1379" x1="574.71" y1="494.165" x2="583.07" y2="494.165" gradientUnits="userSpaceOnUse">
<stop stop-color="white"/>
<stop offset="1" stop-color="#FDE1A7"/>
</linearGradient>
<linearGradient id="paint81_linear_1_1379" x1="453.234" y1="529.5" x2="464.266" y2="529.5" gradientUnits="userSpaceOnUse">
<stop stop-color="white"/>
<stop offset="1" stop-color="#FDE1A7"/>
</linearGradient>
<linearGradient id="paint82_linear_1_1379" x1="154.236" y1="389.06" x2="180.369" y2="389.06" gradientUnits="userSpaceOnUse">
<stop stop-color="white"/>
<stop offset="1" stop-color="#FDE1A7"/>
</linearGradient>
<linearGradient id="paint83_linear_1_1379" x1="223.542" y1="536.75" x2="252.089" y2="536.75" gradientUnits="userSpaceOnUse">
<stop stop-color="white"/>
<stop offset="1" stop-color="#FDE1A7"/>
</linearGradient>
</defs>
</svg>
